<?xml version="1.0" standalone="no"?>
<!DOCTYPE svg PUBLIC "-//W3C//DTD SVG 20010904//EN"
 "http://www.w3.org/TR/2001/REC-SVG-20010904/DTD/svg10.dtd">
<svg version="1.0" xmlns="http://www.w3.org/2000/svg"
 width="512.000000pt" height="512.000000pt" viewBox="0 0 512.000000 512.000000"
 preserveAspectRatio="xMidYMid meet">
<metadata>
Created by potrace 1.11, written by Peter Selinger 2001-2013
</metadata>
<g transform="translate(0.000000,512.000000) scale(0.100000,-0.100000)"
fill="#000000" stroke="none">
<path d="M0 2560 l0 -2560 2560 0 2560 0 0 2560 0 2560 -2560 0 -2560 0 0
-2560z m737 356 l50 -104 104 104 104 104 447 0 c247 0 448 -3 448 -6 0 -3 -5
-25 -11 -50 l-11 -44 -375 0 -375 0 -118 -112 -118 -113 89 -177 89 -178 -114
0 -113 0 -54 115 c-29 63 -56 115 -59 115 -3 0 -57 -52 -120 -115 l-115 -115
-110 1 -110 0 182 177 182 177 -79 155 c-44 85 -79 158 -79 163 -1 4 48 7 107
7 l108 0 51 -104z m1589 -106 c22 -116 42 -212 46 -213 3 -1 75 93 160 208
l154 210 123 3 c114 2 122 1 117 -15 -3 -10 -30 -117 -62 -238 -43 -169 -61
-224 -78 -237 -16 -14 -41 -18 -104 -18 -75 0 -83 2 -78 18 27 94 37 134 34
138 -3 2 -58 -70 -124 -161 l-119 -164 -87 -1 -86 0 -10 48 c-6 26 -21 100
-33 165 -13 64 -26 117 -29 117 -3 0 -25 -74 -49 -165 l-44 -165 -458 0 c-392
0 -459 2 -459 14 0 12 74 296 96 369 5 15 24 17 211 17 174 0 204 -2 200 -14
-3 -8 -11 -33 -17 -55 l-11 -41 -107 0 -108 0 -17 -67 c-10 -38 -20 -78 -23
-90 l-6 -23 266 0 265 0 15 53 c26 90 136 505 136 511 0 3 55 6 123 6 l123 0
40 -210z m1019 -49 c-6 -5 -100 -78 -210 -161 -110 -83 -201 -155 -203 -160
-2 -4 45 -65 104 -135 l107 -127 291 4 c326 4 334 5 380 76 28 41 80 209 91
290 l7 52 95 0 96 0 -7 -50 c-9 -67 -51 -212 -82 -281 -31 -69 -94 -132 -154
-156 -40 -16 -90 -18 -465 -20 l-420 -2 -111 134 -112 134 -32 -117 c-17 -64
-33 -125 -36 -134 -5 -16 -18 -18 -100 -18 l-94 0 6 28 c4 15 28 104 53 197
l46 170 84 3 84 3 180 139 181 140 115 0 c71 0 111 -4 106 -9z m1448 -5 c18
-7 41 -23 52 -36 41 -45 13 -201 -50 -284 -15 -20 -52 -48 -83 -63 -52 -26
-66 -28 -213 -31 l-157 -4 -21 -77 c-11 -42 -25 -97 -32 -123 l-11 -48 -94 0
c-69 0 -94 3 -94 13 0 6 20 84 44 172 l43 160 194 5 c220 6 244 13 274 77 10
20 20 57 23 82 8 74 28 71 -482 71 -248 0 -468 -4 -489 -9 -73 -17 -106 -69
-151 -231 -14 -52 -26 -112 -26 -132 l0 -38 -99 0 -100 0 6 38 c9 64 53 222
78 278 47 106 97 151 196 178 77 21 1143 23 1192 2z"/>
</g>
</svg>
