<svg xmlns="http://www.w3.org/2000/svg" width="72" height="72" viewBox="0 0 72 72">
  <g id="Group_1262" data-name="Group 1262" transform="translate(-267 -1764)">
    <g id="Rectangle_1152" data-name="Rectangle 1152" transform="translate(267 1764)" fill="none" stroke="#f26522" stroke-width="3">
      <rect width="72" height="72" stroke="none"/>
      <rect x="1.5" y="1.5" width="69" height="69" fill="none"/>
    </g>
    <path id="time-is-money" d="M36.847,19.861a16.406,16.406,0,0,0-6.014-1.033,16.406,16.406,0,0,0-6.014,1.033c-2.8,1.143-3.22,2.786-3.22,3.662V35.732c0,.877.418,2.519,3.22,3.662a16.406,16.406,0,0,0,6.014,1.033,16.406,16.406,0,0,0,6.014-1.033c2.8-1.143,3.22-2.786,3.22-3.662V23.524C40.067,22.647,39.648,21,36.847,19.861Zm.09,15.821c-.259.481-2.363,1.615-6.1,1.615s-5.845-1.133-6.1-1.615V33.174l.09.038a16.406,16.406,0,0,0,6.014,1.033c.542,0,1.084-.021,1.612-.064a1.565,1.565,0,1,0-.25-3.12c-.445.036-.9.054-1.362.054-3.742,0-5.846-1.134-6.1-1.615V27.148l.09.038a16.406,16.406,0,0,0,6.014,1.033c.542,0,1.084-.021,1.612-.064a1.565,1.565,0,1,0-.25-3.12c-.445.036-.9.054-1.362.054-3.619,0-5.705-1.06-6.072-1.565.367-.505,2.454-1.565,6.072-1.565,3.741,0,5.845,1.133,6.1,1.615ZM18.858,34.91a1.565,1.565,0,0,1-1.563,1.5h-.067A18,18,0,0,1,5.272,5.7,18,18,0,0,1,29.336,4.446a18.065,18.065,0,0,1,6.233,10.06,1.565,1.565,0,1,1-3.056.679,14.87,14.87,0,1,0-15.153,18.1A1.565,1.565,0,0,1,18.858,34.91Zm.706-26.646V18.426a1.565,1.565,0,0,1-.458,1.107l-5.515,5.515a1.565,1.565,0,1,1-2.213-2.213l5.056-5.056V8.264a1.565,1.565,0,0,1,3.13,0Z" transform="translate(281 1781.573)" fill="#58595b"/>
  </g>
</svg>
