<svg xmlns="http://www.w3.org/2000/svg" width="72" height="72" viewBox="0 0 72 72">
  <g id="Group_1264" data-name="Group 1264" transform="translate(-746 -1883)">
    <g id="Rectangle_1156" data-name="Rectangle 1156" transform="translate(746 1883)" fill="none" stroke="#f26522" stroke-width="3">
      <rect width="72" height="72" stroke="none"/>
      <rect x="1.5" y="1.5" width="69" height="69" fill="none"/>
    </g>
    <path id="sun-energy" d="M20,5.979a1.562,1.562,0,0,1-1.562-1.562V2.072a1.562,1.562,0,1,1,3.125,0V4.416A1.562,1.562,0,0,1,20,5.979ZM5.469,20.51a1.562,1.562,0,0,0-1.562-1.562H1.562a1.562,1.562,0,0,0,0,3.125H3.906A1.562,1.562,0,0,0,5.469,20.51Zm7.3-12.732a1.562,1.562,0,0,0,.511-2.15l-1.173-1.9A1.562,1.562,0,0,0,9.45,5.363l1.173,1.9a1.562,1.562,0,0,0,2.15.511ZM7.527,12.772a1.562,1.562,0,0,0-.578-2.133L5.042,9.545a1.563,1.563,0,1,0-1.555,2.711L5.395,13.35a1.562,1.562,0,0,0,2.133-.578ZM4.789,31.1,6.771,30A1.562,1.562,0,0,0,5.26,27.267L3.278,28.362A1.562,1.562,0,1,0,4.789,31.1ZM11.692,37l1.142-1.956a1.563,1.563,0,1,0-2.7-1.575L8.993,35.428A1.563,1.563,0,1,0,11.692,37ZM22.759,40.51a2.947,2.947,0,0,0,2.065-.847,1.569,1.569,0,0,0,.132-.151L33.5,28.407a1.562,1.562,0,1,0-2.477-1.9l-6.353,8.261,3.4-9.482A1.563,1.563,0,0,0,26.6,23.191H22.85a1.563,1.563,0,0,1-1.38-2.3L30.117,6.057h5.633L29.52,16.424a1.562,1.562,0,0,0,1.339,2.367h5.57a.489.489,0,0,1,.481.28.463.463,0,0,1-.1.523l-.012.014-.642.764a1.563,1.563,0,1,0,2.394,2.009l.636-.758a3.6,3.6,0,0,0-2.762-5.957H33.621L39.85,5.3a1.562,1.562,0,0,0-1.339-2.367H29.219a1.563,1.563,0,0,0-1.35.776L18.757,19.344l-.021.038a4.688,4.688,0,0,0,4.114,6.934h1.529l-3.948,11a2.228,2.228,0,0,0,.147,2.11,2.535,2.535,0,0,0,2.168,1.09ZM19.9,31.249a1.563,1.563,0,0,0-1.3-1.784q-.134-.021-.267-.045a9.064,9.064,0,0,1,.4-17.884c.11-.015.222-.029.333-.04a1.562,1.562,0,1,0-.318-3.109c-.15.015-.3.034-.448.054a12.189,12.189,0,0,0-.538,24.052c.118.022.238.042.358.061a1.56,1.56,0,0,0,1.784-1.3Z" transform="translate(761 1898.49)" fill="#58595b"/>
  </g>
</svg>
