<svg xmlns="http://www.w3.org/2000/svg" width="72" height="72" viewBox="0 0 72 72">
  <g id="Group_1265" data-name="Group 1265" transform="translate(-746 -1764)">
    <g id="Rectangle_1155" data-name="Rectangle 1155" transform="translate(746 1764)" fill="none" stroke="#f26522" stroke-width="3">
      <rect width="72" height="72" stroke="none"/>
      <rect x="1.5" y="1.5" width="69" height="69" fill="none"/>
    </g>
    <path id="industry" d="M40,36.875V40c-1.6,0-3.16-.9-4.641-2.672a.528.528,0,0,0-.717,0C33.16,39.1,31.6,40,30,40s-3.16-.9-4.641-2.672a.528.528,0,0,0-.717,0C23.16,39.1,21.6,40,20,40s-3.16-.9-4.641-2.672a.528.528,0,0,0-.717,0C13.16,39.1,11.6,40,10,40s-3.16-.9-4.641-2.672a.528.528,0,0,0-.717,0C3.16,39.1,1.6,40,0,40V36.875a3.606,3.606,0,0,0,2.243-1.551A3.57,3.57,0,0,1,5,34.063a3.57,3.57,0,0,1,2.757,1.262A3.606,3.606,0,0,0,10,36.875a3.606,3.606,0,0,0,2.243-1.551,3.642,3.642,0,0,1,5.514,0A3.606,3.606,0,0,0,20,36.875a3.606,3.606,0,0,0,2.243-1.551,3.642,3.642,0,0,1,5.514,0A3.606,3.606,0,0,0,30,36.875a3.606,3.606,0,0,0,2.243-1.551,3.642,3.642,0,0,1,5.514,0A3.606,3.606,0,0,0,40,36.875ZM23.047,24.219a1.562,1.562,0,0,0-1.562,1.563v3.125a1.563,1.563,0,0,0,3.125,0V25.781A1.562,1.562,0,0,0,23.047,24.219Zm-13.2-7.344h5.469V29.922a1.563,1.563,0,0,0,3.125,0V16.875h3.047v3.438a1.563,1.563,0,0,0,3.125,0V16.875h5.547a1.563,1.563,0,0,0,0-3.125H28.62V1.563a1.563,1.563,0,0,0-3.125,0V13.75H14.557V1.563a1.563,1.563,0,0,0-3.125,0V13.75H9.844a1.563,1.563,0,0,0,0,3.125ZM28.715,27.8a9.249,9.249,0,0,0-.978,3.444h.018a1.562,1.562,0,1,0,3.1.242c0-.024,0-.046,0-.07h0v.008a6.263,6.263,0,0,1,.672-2.262,3.427,3.427,0,0,1,3.276-1.9,1.563,1.563,0,0,0,0-3.125A6.557,6.557,0,0,0,28.715,27.8ZM9.456,31.423v-.008h0c0,.023,0,.046,0,.07a1.563,1.563,0,1,0,3.1-.242h.018a8.858,8.858,0,0,0-1.819-4.731,1.562,1.562,0,0,0-2.419,1.979A5.868,5.868,0,0,1,9.456,31.423Z" transform="translate(761 1782)" fill="#58595b"/>
  </g>
</svg>
