<svg xmlns="http://www.w3.org/2000/svg" width="72" height="72" viewBox="0 0 72 72">
  <g id="Group_1266" data-name="Group 1266" transform="translate(-746 -1649)">
    <g id="Rectangle_1154" data-name="Rectangle 1154" transform="translate(746 1649)" fill="none" stroke="#f26522" stroke-width="3">
      <rect width="72" height="72" stroke="none"/>
      <rect x="1.5" y="1.5" width="69" height="69" fill="none"/>
    </g>
    <path id="water" d="M36.464,29.117a1.562,1.562,0,0,0-2.3,0c-.034.037-.846.925-1.667,2.035-1.675,2.264-1.869,3.4-1.869,4.066v.1a4.688,4.688,0,0,0,9.375,0v-.1c0-.661-.194-1.8-1.869-4.066C37.31,30.041,36.5,29.154,36.464,29.117Zm.411,6.2a1.563,1.563,0,0,1-3.125,0v-.087a6.135,6.135,0,0,1,1.29-2.262c.091-.123.183-.242.272-.358.09.116.181.235.272.358a6.135,6.135,0,0,1,1.29,2.262Zm.79-22.129a5.666,5.666,0,0,0-3.766-1.23H14.844V9.375a1.576,1.576,0,0,1,1.443-1.557l.023,0L28.322,6.643A3.33,3.33,0,0,0,28,0H9.375A9.386,9.386,0,0,0,0,9.375V38.438A1.562,1.562,0,0,0,1.563,40h11.8a1.562,1.562,0,0,0,1.563-1.562V34.609a1.563,1.563,0,0,0-3.125,0v2.266H3.125v-21.8H33.92a2.508,2.508,0,0,1,1.788.541,3.224,3.224,0,0,1,1.167,2.5V19.8l-.88,1.453H34.4L33.29,19.425a1.563,1.563,0,0,0-1.337-.753l-18.594,0A1.562,1.562,0,0,0,11.8,20.237V26.8a1.563,1.563,0,0,0,3.125,0v-5l16.151,0,1.106,1.826a1.562,1.562,0,0,0,1.336.753h3.359a1.562,1.562,0,0,0,1.336-.753l1.563-2.58A1.561,1.561,0,0,0,40,20.234V18.123A6.291,6.291,0,0,0,37.665,13.183ZM3.125,9.375a6.257,6.257,0,0,1,6.25-6.25H28a.2.2,0,0,1,.02.408l-12,1.171a4.7,4.7,0,0,0-4.3,4.67v2.578H3.125Z" transform="translate(761 1663)" fill="#58595b"/>
  </g>
</svg>
