<svg xmlns="http://www.w3.org/2000/svg" width="72" height="72" viewBox="0 0 72 72">
  <g id="Group_1261" data-name="Group 1261" transform="translate(-267 -1649)">
    <g id="Rectangle_1151" data-name="Rectangle 1151" transform="translate(267 1649)" fill="none" stroke="#f26522" stroke-width="3">
      <rect width="72" height="72" stroke="none"/>
      <rect x="1.5" y="1.5" width="69" height="69" fill="none"/>
    </g>
    <path id="eco" d="M40.074,20.021c0-.009,0-.018,0-.027a1.562,1.562,0,0,0-1.5-1.605c-.35-.013-8.638-.261-13.492,4.592a8.42,8.42,0,0,0-2.794,6.042,8.21,8.21,0,0,0,.833,3.43,41.082,41.082,0,0,0-3.079,3.683,41.055,41.055,0,0,0-3.079-3.683,8.209,8.209,0,0,0,.833-3.43A8.42,8.42,0,0,0,15,22.98c-4.854-4.853-13.142-4.605-13.492-4.592a1.561,1.561,0,0,0-1.5,1.6c-.022.988-.043,8.761,4.595,13.4a8.47,8.47,0,0,0,6.032,2.794A10.285,10.285,0,0,0,15.1,35.056a26.716,26.716,0,0,1,3.515,4.589,1.561,1.561,0,0,0,1.349.835c.037,0,.075,0,.112,0a1.558,1.558,0,0,0,1.384-.839c.026-.049,2.685-4.955,11.3-11.753a1.562,1.562,0,1,0-1.935-2.453c-2.074,1.636-3.822,3.169-5.289,4.567a4.272,4.272,0,0,1-.131-1,5.374,5.374,0,0,1,1.879-3.812c2.776-2.776,7.258-3.464,9.611-3.63-.166,2.353-.854,6.838-3.631,9.615a7.123,7.123,0,0,1-2.042,1.483A1.562,1.562,0,1,0,32.519,35.5a10.212,10.212,0,0,0,2.959-2.118C40.063,28.8,40.1,21.148,40.074,20.021ZM6.808,31.174C4.029,28.4,3.342,23.907,3.177,21.556c2.349.162,6.822.845,9.611,3.634A5.374,5.374,0,0,1,14.667,29a4.264,4.264,0,0,1-.131,1c-1.467-1.4-3.215-2.932-5.289-4.567a1.562,1.562,0,0,0-1.935,2.453A70.091,70.091,0,0,1,12.8,32.675a7.809,7.809,0,0,1-2.168.378A5.417,5.417,0,0,1,6.808,31.174Zm26.94-14.128a5.631,5.631,0,0,0,5.624-5.624V6.109a5.624,5.624,0,1,0-11.249,0v5.312A5.631,5.631,0,0,0,33.748,17.046Zm-2.5-10.937a2.5,2.5,0,1,1,5,0v5.312a2.5,2.5,0,1,1-5,0ZM14.765,11.422V6.109A5.631,5.631,0,0,1,20.39.485a5.7,5.7,0,0,1,3.574,1.25,5.518,5.518,0,0,1,1.943,3.21,1.562,1.562,0,1,1-3.065.61A2.443,2.443,0,0,0,20.39,3.61a2.5,2.5,0,0,0-2.5,2.5v5.312A2.5,2.5,0,0,0,22.822,12a1.562,1.562,0,1,1,3.041.718,5.625,5.625,0,0,1-11.1-1.3ZM7.031,17.046a5.612,5.612,0,0,0,5.191-3.457,1.562,1.562,0,1,0-2.883-1.2,2.5,2.5,0,0,1-4.808-.963V9.859h6.484A1.562,1.562,0,0,0,12.578,8.3V5.25a1.568,1.568,0,0,0-.03-.3,5.518,5.518,0,0,0-1.943-3.21A5.7,5.7,0,0,0,7.031.485,5.631,5.631,0,0,0,1.407,6.109v5.312A5.631,5.631,0,0,0,7.031,17.046ZM4.532,6.109a2.5,2.5,0,0,1,2.5-2.5A2.448,2.448,0,0,1,9.453,5.423V6.734H4.532Z" transform="translate(282 1667.515)" fill="#58595b"/>
  </g>
</svg>
