<svg xmlns="http://www.w3.org/2000/svg" width="72" height="72" viewBox="0 0 72 72">
  <g id="Group_1263" data-name="Group 1263" transform="translate(-267 -1883)">
    <g id="Rectangle_1153" data-name="Rectangle 1153" transform="translate(267 1883)" fill="none" stroke="#f26522" stroke-width="3">
      <rect width="72" height="72" stroke="none"/>
      <rect x="1.5" y="1.5" width="69" height="69" fill="none"/>
    </g>
    <path id="shield" d="M49.9,40a15.3,15.3,0,0,1-6.889-1.658,18.237,18.237,0,0,1-5.529-4.309,20.084,20.084,0,0,1-5.048-13.058V8.655a1.559,1.559,0,0,1,.922-1.423L49.186.136a1.56,1.56,0,0,1,1.271,0l15.984,7.1a1.559,1.559,0,0,1,.927,1.425v12.32a19.629,19.629,0,0,1-2.823,10,1.559,1.559,0,0,1-2.681-1.593,16.51,16.51,0,0,0,2.386-8.4V9.669l-14.422-6.4-14.272,6.4v11.31c0,8.325,6.838,15.906,14.347,15.906a12.711,12.711,0,0,0,7.5-2.508,1.559,1.559,0,1,1,1.835,2.522A15.809,15.809,0,0,1,49.9,40ZM48.728,27.355a4.02,4.02,0,0,0,2.859-1.489q.027-.034.052-.069l7.718-10.78A1.559,1.559,0,1,0,56.821,13.2L49.134,23.938A.891.891,0,0,1,47.853,24l-4.968-4.848a1.559,1.559,0,1,0-2.178,2.232l4.976,4.856.014.013a4.021,4.021,0,0,0,2.766,1.105C48.551,27.364,48.64,27.361,48.728,27.355Z" transform="translate(253.564 1899)" fill="#58595b"/>
  </g>
</svg>
