<svg xmlns="http://www.w3.org/2000/svg" width="24" height="24" viewBox="0 0 24 24">
  <path id="info" d="M12,0A12,12,0,1,0,24,12,12,12,0,0,0,12,0Zm2.5,18.6q-.926.366-1.478.557a3.9,3.9,0,0,1-1.282.192A2.555,2.555,0,0,1,9.993,18.8a1.767,1.767,0,0,1-.621-1.389,5.044,5.044,0,0,1,.046-.669c.031-.228.081-.484.149-.771l.773-2.731c.068-.262.127-.511.174-.743a3.293,3.293,0,0,0,.069-.643.99.99,0,0,0-.215-.728,1.223,1.223,0,0,0-.826-.2,2.168,2.168,0,0,0-.615.091c-.208.064-.389.122-.537.179l.2-.841q.759-.309,1.453-.529a4.292,4.292,0,0,1,1.31-.221,2.507,2.507,0,0,1,1.719.538,1.789,1.789,0,0,1,.6,1.4q0,.178-.042.627a4.194,4.194,0,0,1-.154.824l-.769,2.723c-.063.218-.119.468-.17.748a3.954,3.954,0,0,0-.074.636.913.913,0,0,0,.243.74,1.359,1.359,0,0,0,.84.2,2.437,2.437,0,0,0,.636-.1,3.616,3.616,0,0,0,.514-.173ZM14.361,7.547a1.835,1.835,0,0,1-1.3.5,1.855,1.855,0,0,1-1.3-.5,1.6,1.6,0,0,1-.541-1.212,1.612,1.612,0,0,1,.541-1.215,1.841,1.841,0,0,1,1.3-.5,1.821,1.821,0,0,1,1.3.5,1.637,1.637,0,0,1,0,2.427Z" fill="#fff" opacity="0.8"/>
</svg>
