<svg xmlns="http://www.w3.org/2000/svg" width="24" height="24" viewBox="0 0 24 24">
  <path id="serch" d="M-30.654,23.716-36.37,18a10.085,10.085,0,0,1-6.468,2.323,10.1,10.1,0,0,1-7.185-2.976A10.1,10.1,0,0,1-53,10.162a10.1,10.1,0,0,1,2.976-7.185A10.1,10.1,0,0,1-42.839,0a10.1,10.1,0,0,1,7.186,2.976,10.1,10.1,0,0,1,2.976,7.185A10.085,10.085,0,0,1-35,16.63l5.716,5.716a.969.969,0,0,1,0,1.371.967.967,0,0,1-.685.284A.966.966,0,0,1-30.654,23.716ZM-51.061,10.162a8.232,8.232,0,0,0,8.223,8.223,8.2,8.2,0,0,0,5.774-2.373l.037-.039.039-.037a8.2,8.2,0,0,0,2.373-5.774,8.232,8.232,0,0,0-8.223-8.223A8.233,8.233,0,0,0-51.061,10.162Z" transform="translate(53)" fill="#fff" opacity="0.8"/>
</svg>
