<svg xmlns="http://www.w3.org/2000/svg" width="59.87" height="62.36" viewBox="0 0 59.87 62.36">
  <g id="information" transform="translate(0)">
    <g id="Group_848" data-name="Group 848" transform="translate(0)">
      <g id="Group_847" data-name="Group 847">
        <path id="Path_359" data-name="Path 359" d="M40.159,0A29.934,29.934,0,0,0,18.166,50.241L16.5,61A1.178,1.178,0,0,0,18.2,62.228l9.651-5a29.66,29.66,0,0,0,12.305,2.64,29.935,29.935,0,0,0,0-59.87Zm0,57.514A27.33,27.33,0,0,1,28.33,54.854a1.178,1.178,0,0,0-1.048.018l-8.1,4.2,1.4-9.034a1.178,1.178,0,0,0-.314-1,27.577,27.577,0,1,1,19.891,8.477Z" transform="translate(-10.224 0)" fill="#fff"/>
      </g>
    </g>
    <g id="Group_850" data-name="Group 850" transform="translate(23.698 8.612)">
      <g id="Group_849" data-name="Group 849" transform="translate(0)">
        <path id="Path_360" data-name="Path 360" d="M211.029,70.708a6.237,6.237,0,1,0,6.237,6.237A6.244,6.244,0,0,0,211.029,70.708Zm0,10.118a3.881,3.881,0,1,1,3.881-3.881A3.885,3.885,0,0,1,211.029,80.826Z" transform="translate(-204.792 -70.708)" fill="#fff"/>
      </g>
    </g>
    <g id="Group_852" data-name="Group 852" transform="translate(21.844 23.077)">
      <g id="Group_851" data-name="Group 851">
        <path id="Path_361" data-name="Path 361" d="M204.576,209.97h-1.341V190.654a1.178,1.178,0,0,0-1.178-1.178H190.751a1.178,1.178,0,0,0-1.178,1.178v3.915a1.178,1.178,0,0,0,1.178,1.178h1.341V209.97h-1.341a1.178,1.178,0,0,0-1.178,1.178v3.915a1.178,1.178,0,0,0,1.178,1.178h13.826a1.178,1.178,0,0,0,1.178-1.178v-3.915A1.178,1.178,0,0,0,204.576,209.97Zm-1.178,3.915h-11.47v-1.559h1.341a1.178,1.178,0,0,0,1.178-1.178V194.569a1.178,1.178,0,0,0-1.178-1.178h-1.341v-1.559h8.95v19.316a1.178,1.178,0,0,0,1.178,1.178H203.4Z" transform="translate(-189.573 -189.476)" fill="#fff"/>
      </g>
    </g>
  </g>
</svg>
