<svg xmlns="http://www.w3.org/2000/svg" width="691.299" height="361.475" viewBox="0 0 691.299 361.475">
  <g id="Group_1343" data-name="Group 1343" transform="translate(-240.85 -2503.99)">
    <path id="Path_110" data-name="Path 110" d="M630.9,81.846l-.6,1.642,1.469.951,1.556-.951-.518-1.988Z" transform="translate(156.402 2494.242)" fill="#fff" stroke="#f5f5f5" stroke-width="2" fill-rule="evenodd"/>
    <path id="Path_111" data-name="Path 111" d="M473.9,131.406l2.593,2.074,1.124-1.9.432-1.556-1.469-.864-1.729-.259Z" transform="translate(177.622 2487.811)" fill="#fff" stroke="#f5f5f5" stroke-width="2" fill-rule="evenodd"/>
    <path id="Path_112" data-name="Path 112" d="M468,138.493l.864,1.037,2.852-1.815-.691-1.729L469.3,135.9l-1.037,1.642Z" transform="translate(178.423 2486.862)" fill="#fff" stroke="#f5f5f5" stroke-width="2" fill-rule="evenodd"/>
    <path id="Path_113" data-name="Path 113" d="M542.1,107.7l4.408.605.172,2.161-1.729.519-1.988-1.3Z" transform="translate(168.369 2490.688)" fill="#fff" stroke="#f5f5f5" stroke-width="2" fill-rule="evenodd"/>
    <path id="Path_114" data-name="Path 114" d="M555.4,99.224l.778,3.457h1.815l.346-3.112L556.524,98.1Z" transform="translate(166.564 2491.99)" fill="#fff" stroke="#f5f5f5" stroke-width="2" fill-rule="evenodd"/>
    <path id="Path_115" data-name="Path 115" d="M560,102.3v3.976l4.494-.951,4.149-2.161-1.383-3.284-2.766-.346L562.42,99.1l-1.556,2.247Z" transform="translate(165.94 2491.854)" fill="#fff" stroke="#f5f5f5" stroke-width="2" fill-rule="evenodd"/>
    <path id="Path_116" data-name="Path 116" d="M561.7,76.3l1.3,2.852,8.557.086,2.507-4.581L572.417,71.2,570.6,73.188l-3.544-.346-.951,1.642h-1.9l-.259,1.9Z" transform="translate(165.71 2495.64)" fill="#fff" stroke="#f5f5f5" stroke-width="2" fill-rule="evenodd"/>
    <path id="Path_117" data-name="Path 117" d="M557.719,60.6l-.519,2.074,1.729.432.605-1.815Z" transform="translate(166.32 2497.077)" fill="#fff" stroke="#f5f5f5" stroke-width="2" fill-rule="evenodd"/>
    <path id="Path_118" data-name="Path 118" d="M550.633,81.452l1.988,3.025,3.716.778.086-4.235-1.3-2.074-4.322-.346-2.334,1.642-3.457-.605-.259,2.42,2.074,2.161-1.124,1.3-3.371-2.679-3.976.346-.259,3.2.346,3.371L540.261,92l.691,2.593,3.63,1.037,3.457-.259-.259-3.63L550.2,92l1.9-3.112,2.334.432,1.469-1.642-1.469-1.556-3.371-.951-2.679-3.112Z" transform="translate(168.912 2494.635)" fill="#fff" stroke="#f5f5f5" stroke-width="2" fill-rule="evenodd"/>
    <path id="Path_119" data-name="Path 119" d="M533.2,91.1l.6,2.593,2.247,2.679,1.469-.605-1.729-3.112Z" transform="translate(169.577 2492.939)" fill="#fff" stroke="#f5f5f5" stroke-width="2" fill-rule="evenodd"/>
    <path id="Path_120" data-name="Path 120" d="M622.126,84.6,621,86.847,614.78,90.3l-4.495-4.235-4.495-.432-6.482,4.149L594.9,95.231l-1.556,5.532-2.939.864-3.63-1.815-3.457.346-1.815,2.334-1.556-1.3-1.469,1.556-1.815-1.729,2.593-2.593L573.119,98l-3.457,3.025,1.9,6.569-3.457,3.371v-5.013h-2.42l-2.334,2.074-.605-2.593,3.543-3.112-3.716.173-11.063,5.7,2.074,2.593-3.112,3.025,1.21,2.247,2.247-1.124.259,3.284,2.679,3.112-4.149,1.037-1.21,1.729,1.124,2.679-3.371.605L544.683,126l-1.3,5.1-7.692-1.383v11.236l-5.445-.864-8.3-7.52,3.025-2.161-5.1-7.606-3.284-1.556-4.927,1.729-5.532-2.161-.778,8.557-10.026,4.322-3.889-2.593.605-2.074-10.285-.086-2.679,3.63-.691,2.334-.691-3.457-1.9-1.729-2.247,2.334-3.2,1.556-.173,2.161,1.469,1.988h.087v.086l.691,3.457,4.754,6.828.086.087v4.494l2.42,2.939.173.173-.173.173-5.618,4.494-.346,2.593h0v.086l-1.383,1.988-.951,4.754-.086.259-.173-.086-2.766-.259-4.408,3.63h-.086l-1.469.778,3.544,5.359v.086h0l1.21,15.126v.173l-3.111,3.457,1.988,1.556.173.086-.086.173-.778,3.976,1.815,1.988v2.939l2.161,1.469.173.086-.086.173-1.037,2.766h0v.086l-3.284,3.889-.259,2.766h5.272l.086.087,2.247,1.729,2.506-1.556.173-.173.087.173,1.383,1.729.086.173h0l1.815,2.679.087.173-.173.173-1.988,1.3v2.42l2.247.173,1.9-1.383.173-.086.086.173,2.333,4.494h0v.086l-.173,5.359L486,239.745l.086.086V240l-1.383,5.532,1.729,3.717,3.8,1.21h.173l-.086.259-2.852,6.742-.6,8.47,2.939,3.112,3.112-2.42.086-.086h.087l4.754-.173,1.642-3.025.173-.259.173.259,2.593,2.507,3.284-3.889,5.272-11.236v-.086h.173l3.457-.605h.087l6.828,2.766h.086l.086.086,1.469,4.494,4.062-1.9h.173l2.507,1.815h.086v.086l4.581,10.372,5.964,10.977,3.717-2.42h.086l3.89-1.556.086-.086.087.086,3.025,2.42,1.556-1.469.173-.086.086.173,2.42,2.161,2.161-2.161.086-.086h.086l5.445.173h.086l.086.086,3.371,2.593,6.655-2.42.173-.086.086.086,2.247,1.815,9.162-4.149.086-.086h.086l2.593.605,2.939-1.124-.346-2.161-.086-.087.173-.086,7.087-3.717-1.729-5.013-.086-.086.086-.173,2.42-2.507-.951-2.507L593,253.92l-.173-.173.086-.173,2.42-4.581-4.494-3.112-.173-.086.173-.173,2.074-2.42V232.831l.086-.086,8.816-3.284.346-3.976v-.173h.173l5.186-.346,1.124-3.2-.173-3.371v-.086l.173-.086,2.506-1.21-1.9-6.655-3.457-2.42-.173-.086.086-.173,2.247-8.125-3.111-8.384-.087-.173.087-.086,1.729-2.247.086-.173.173.086,6.136,2.074,3.976-.864,1.383-2.334v-.086l.087-.086,4.667-.691.864-2.939-7.779-16.076V167.4l.778-3.889v-.086l.087-.086,5.186-3.63-1.9-3.8-.086-.086.086-.173,5.013-4.667.086-.086h.086l4.495-.432,2.507-2.852.519-5.013L630.078,140l-.087-.087v-.086l-.173-3.284L628,133.78l-.086-.173.086-.086,2.247-2.074-2.42-2.852-.086-.086.086-.173,5.878-5.359h0l2.679-1.124,1.9-2.852-3.63-7.606h-4.667l-3.63-1.556-.086-.086v-.086l-1.9-4.84-.086-.086.086-.086,7.347-8.643V91.774Z" transform="translate(179.183 2493.821)" fill="#fff" stroke="#f5f5f5" stroke-width="2" fill-rule="evenodd"/>
    <path id="Path_121" data-name="Path 121" d="M660.4,18.433l4.84,5.7,1.037-1.037,1.383-6.655,1.556-3.112L667.487,11l-4.494.346L660.4,15.322Z" transform="translate(152.318 2503.808)" fill="#fff" stroke="#f5f5f5" stroke-width="2" fill-rule="evenodd"/>
    <path id="Path_122" data-name="Path 122" d="M733.746,74.937,732.622,62.75l-3.371-1.9,7.952-5.532L736.079,51.6l-14.866-1.3-1.815,2.42-4.062.259-.432,3.2-3.284-.259V51.6l3.717-1.3,1.469-3.025-.778-8.038-1.47-.519-1.815,1.124-.086-2.939-3.544,1.383-2.333-2.766.864-4.408,2.939,2.593,1.729-1.3,2.507,2.679,1.469-3.371-.346-4.062,2.679-2.247,4.754.432,7.865-5.964-1.9-2.247,3.976.519-.173-3.8-4.235.778-1.3-2.679-5.7-1.124,2.247-2.852L721.213,6.31l2.68-1.9L720.521,0l-9.594,5.618-.519,4.667-2.593,3.371,6.4,2.593L710.755,17.8l-10.372-2.766-12.1,7.952-18.064,9.853-4.84,7.865.432,2.42-3.284.864-4.581,4.149,3.284,4.062,2.939-.864,4.321,2.507-.432,4.408-4.062.432-2.679,1.556-5.791-3.63V63.96l-5.878,4.408L647.4,72.776l9.767,7.26.086.086V84.7l-.086.086-7.26,8.557,1.815,4.667,3.457,1.469h4.84v.173l1.9,3.8,3.025.432h.087l.086.086,1.9,3.457,4.062-1.9.087-.086.086.086,3.8,1.21L678,104.151v-.086h.087l4.495-.346,3.284-3.457-.605-3.371v-.173h.173l3.371-1.124.864-3.2.086-.086h.086l2.852-.346.951-2.679V89.2l.173-.086L699,87.9l1.383-2.42.086-.086h.086l7.865-.519h.173v.173l1.9,5.013,5.445-1.729h.087l5.963.173,4.84-13.829v-.259l.259.086,2.938,1.556Z" transform="translate(154.082 2505.3)" fill="#fff" stroke="#f5f5f5" stroke-width="2" fill-rule="evenodd"/>
    <path id="Path_123" data-name="Path 123" d="M790,158.183l1.729,1.729,3.457-2.766-1.469-.346Z" transform="translate(134.734 2484.025)" fill="#fff" stroke="#f5f5f5" stroke-width="2" fill-rule="evenodd"/>
    <path id="Path_124" data-name="Path 124" d="M773,243.91l.259,1.3,1.729,1.124.778-2.074-.951-1.556Z" transform="translate(137.041 2472.371)" fill="#fff" stroke="#f5f5f5" stroke-width="2" fill-rule="evenodd"/>
    <path id="Path_125" data-name="Path 125" d="M779.159,241.078l-.259,1.21,1.815.778,1.037-1.124-1.815-1.642Z" transform="translate(136.24 2472.697)" fill="#fff" stroke="#f5f5f5" stroke-width="2" fill-rule="evenodd"/>
    <path id="Path_126" data-name="Path 126" d="M777.819,244.3l-.518,5.272,2.074,2.593,1.9-.864-.432-5.186-1.469-1.3Z" transform="translate(136.457 2472.153)" fill="#fff" stroke="#f5f5f5" stroke-width="2" fill-rule="evenodd"/>
    <path id="Path_127" data-name="Path 127" d="M781.159,257.7l-.259,1.988.864,1.9,2.42-1.124.346-1.21Z" transform="translate(135.969 2470.335)" fill="#fff" stroke="#f5f5f5" stroke-width="2" fill-rule="evenodd"/>
    <path id="Path_128" data-name="Path 128" d="M784.664,275.4l-.864,1.729,1.3,1.9,1.643-1.556-1.037-1.9Z" transform="translate(135.575 2467.934)" fill="#fff" stroke="#f5f5f5" stroke-width="2" fill-rule="evenodd"/>
    <path id="Path_129" data-name="Path 129" d="M785,286.329l.864,1.469,1.3-.432.259-2.42-1.642-.346Z" transform="translate(135.413 2466.686)" fill="#fff" stroke="#f5f5f5" stroke-width="2" fill-rule="evenodd"/>
    <path id="Path_130" data-name="Path 130" d="M786.083,291.1l-1.383,1.383,1.037,2.852,3.2-.865-1.037-2.852Z" transform="translate(135.453 2465.804)" fill="#fff" stroke="#f5f5f5" stroke-width="2" fill-rule="evenodd"/>
    <path id="Path_131" data-name="Path 131" d="M783.642,304.8,782,306.356l.086,3.284.086,3.457.086,1.556H783.9l1.383-3.889-.346-3.8Z" transform="translate(135.819 2463.945)" fill="#fff" stroke="#f5f5f5" stroke-width="2" fill-rule="evenodd"/>
    <path id="Path_132" data-name="Path 132" d="M777.925,319.7h1.642l.519,2.247-1.21,1.815-1.556,2.247-.173,2.507-.432,3.025-.259,2.334-.778-.346-.6-4.062-.173-5.013,2.074-2.074,1.124-.951Z" transform="translate(136.783 2461.923)" fill="#fff" stroke="#f5f5f5" stroke-width="2" fill-rule="evenodd"/>
    <path id="Path_133" data-name="Path 133" d="M771.3,349.194l.865-.346.259-5.878,1.037-1.21.173-1.469-1.037-.691-1.643.778-.951.691.864,2.593-.346,3.284Z" transform="translate(137.447 2459.224)" fill="#fff" stroke="#f5f5f5" stroke-width="2" fill-rule="evenodd"/>
    <path id="Path_134" data-name="Path 134" d="M778.7,343.52l.519,1.21,1.642-.6-.346-1.729-.951-1.3-.864.951Z" transform="translate(136.267 2459.02)" fill="#fff" stroke="#f5f5f5" stroke-width="2" fill-rule="evenodd"/>
    <path id="Path_135" data-name="Path 135" d="M741.683,144.9l-1.383,3.976,5.013,5.618.692-8.125-2.68-1.21Z" transform="translate(141.477 2485.64)" fill="#fff" stroke="#f5f5f5" stroke-width="2" fill-rule="evenodd"/>
    <path id="Path_136" data-name="Path 136" d="M780,161.778l1.383,2.074,4.927.778,2.074-1.037-1.21-2.161L783.457,161Z" transform="translate(136.091 2483.456)" fill="#fff" stroke="#f5f5f5" stroke-width="2" fill-rule="evenodd"/>
    <path id="Path_137" data-name="Path 137" d="M670.273,200.253l3.025-1.988,1.988-1.729,2.852-.691-.951-5.7L682.2,188.5l3.8-3.371,3.544-.086-2.593,3.717,2.42,2.161,3.63-4.062.951-6.482,3.2-1.21,2.593-3.371-2.679-2.074-2.334,2.939-2.507-2.334-.691-11.582-2.161-6.915.692-5.1,4.235-5.964,2.334-.086,1.124-3.371,4.84,6.655,3.371-.6.259-2.507-.778-5.013-.865-3.63-3.284-1.815-.086-.086v-.086l-.605-3.2-2.161-1.988-3.371.346h-.173v-.173l-2.074-5.272-2.852-.605h-.087l-.086-.086-4.581-6.742-3.285,3.457h-.173l-4.494.346-2.939,2.593-.086.086h-.087l-3.889-1.3-4.149,2.074-.173.086-.086-.173-1.988-3.544-2.68-.432,1.729,3.63.087.086-.087.086-2.074,3.025h-.086l-2.593,1.124-5.7,5.186,2.42,2.852.173.173-.173.086-2.247,2.074,1.815,2.679v.086h0l.173,3.284,2.939,2.593.086.086v.086l-.518,5.186v.086h-.086l-2.593,3.025-.087.086h-.086l-4.494.432-4.84,4.581,1.988,3.8.087.086-.173.173-5.273,3.717-.777,3.717,7.606,15.9,3.543-2.334.087-.086.086.086,8.038,2.593.087.086v.086l.95,4.408v.086l-.086.086-1.9,3.457,1.469,2.852,3.2-2.334H668.2l.086.086Z" transform="translate(154.977 2489.493)" fill="#fff" stroke="#f5f5f5" stroke-width="2" fill-rule="evenodd"/>
    <path id="Path_138" data-name="Path 138" d="M680.372,367.494l-.432,13.138,2.334,4.062-9.248.778L670,392.127l8.557,8.816.259,3.284,4.753-4.495,8.125.086,5.878-4.754,3.457-7,1.728-19.188,2.334-10.026L703.535,347.1,701.2,346.4h-.087l-.086-.087-.519-2.852-3.89-2.766-4.322,3.284,2.593,2.766,4.063.346h.259l-.086.259-.865,6.31-.086.173H698l-2.853.086.432,4.062v.173l-.086.086-4.149,2.766h-.173l-6.828.519-1.728,2.247L684,366.37l.087.259-.259.086Z" transform="translate(151.015 2459.075)" fill="#fff" stroke="#f5f5f5" stroke-width="2" fill-rule="evenodd"/>
    <path id="Path_139" data-name="Path 139" d="M668.631,333.681l3.025,4.927-1.123,3.63,1.815,5.272,3.2-.691-1.3-2.593v-.087l.087-.086,1.815-2.42.087-.087h.087l6.828-.519,4.062-2.679-.432-4.149-.086-.173h.259l2.939-.173.864-5.964-3.889-.259h-.087l-.086-.086-2.766-3.025-.173-.173.173-.173,4.667-3.457.087-.086.173.086,3.975,2.939h.087v.086l.6,2.766,2.074.605,1.037-13.31-1.469-4.149L688.6,296.342l-2.161-2.593-1.9-9.421-1.3-3.112-.432-.519-4.927-1.988-1.729-1.988,1.469-2.939-3.544-1.469-7.606-1.383-5.877,3.025-1.988,8.9-2.507-3.112-2.852,3.63-2.334-6.915-4.926,3.025-4.235-.691.259-3.889,5.445-13.57,1.3-13.57,1.556-6.482-1.3-5.445,1.815-4.84-.778-5.186,11.322-11.15,3.63.605.346-1.3-1.037-1.556,1.642-1.124-1.988-3.371h-3.889l-3.284,2.42-.259.173-.086-.259-1.556-3.2-.086-.086.086-.087,1.9-3.457-.864-4.322-7.779-2.506-3.544,2.334-.864,3.112-.086.173h-.086l-4.753.691-1.3,2.42-.086.086h-.086l-4.062.864h-.173l-6.05-2.074L625.5,206.28l3.112,8.47h0v.087l-2.248,8.038,3.371,2.42h.087v.086l1.988,6.915.086.173-.173.087-2.593,1.21.173,3.2h0v.086l-1.21,3.371-.086.086h-.086l-5.186.346-.346,3.976v.086L622.3,245l-8.73,3.284v10.2l-.086.086-1.988,2.334,4.408,3.025.173.087-.086.173-2.42,4.667,4.494,2.852.087.087v.086l1.037,2.593.086.173-.086.086-2.42,2.593,1.728,4.84,7.088-3.717.087-.086.172.173,2.334,2.507.086.087-.086.173-3.457,7.52.346,3.63v.086l-.086.087L622.39,294.1l.173,3.025h5.964v.086l2.679,3.976,2.939-.173L638.9,296.6l.778-3.2v-.173h3.717l1.123-2.247.087-.086h.173l2.507.346.086.086.086.087,2.334,7.174v.173l-.086.086-1.555,1.556h-.087l-5.791.951,1.469,3.025.087.173-.087.086-2.334,2.506-.605,3.2v.173l-3.371,3.889,1.383,1.815.173.173-.173.086-2.247,3.025v3.717l6.136,3.025v.086h0l4.927,6.828,3.112-2.939h.173l6.569.086h.086l2.939,2.42,8.816-3.025.345-.086-.086.346Z" transform="translate(158.953 2478.625)" fill="#fff" stroke="#f5f5f5" stroke-width="2" fill-rule="evenodd"/>
    <path id="Path_140" data-name="Path 140" d="M648.8,360.794l3.371,5.359,3.544,3.112,7.693-3.717,1.037-3.112,5.7-6.482,3.2-1.383.778-3.371-8.557,2.939h-.087l-.086-.086-2.939-2.334-6.482-.173-3.112,3.025Z" transform="translate(153.892 2457.649)" fill="#fff" stroke="#f5f5f5" stroke-width="2" fill-rule="evenodd"/>
    <path id="Path_141" data-name="Path 141" d="M574.376,332.682l7.692-3.889,5.878,1.988,7.087-1.124,10.372,10.285,12.878,13.311,5.1-2.074,3.112,1.469,2.333-1.124,4.235,1.383,2.334-.346,4.063-6.137-4.927-6.828-6.224-3.112-.086-.086v-4.062l.086-.087,2.161-2.939-1.383-1.815-.173-.173.173-.086,3.457-4.062.518-3.285h.086V319.8l2.247-2.42-1.469-3.2-.173-.259h.259l5.964-.951,1.469-1.469-2.247-6.915-2.247-.346-1.124,2.161-.086.173h-3.63l-.778,3.112v.086h0l-4.926,4.494v.086h-.087l-3.112.173h-.086l-.086-.086-2.679-3.976h-6.137v-.259l-.173-3.284v-.086l.086-.086,2.593-1.469-.346-3.544v-.173l3.457-7.433-2.161-2.334-14.261,7.433.346,2.247v.173h-.173l-3.025,1.21h-.173l-2.68-.6-9.248,4.235-.086.086-.086-.086-2.247-1.815L579.3,307.1l-.086.086-.087-.086-3.457-2.68-5.273-.173-2.247,2.247-.173.173-.173-.173-2.334-2.161-1.642,1.383-.086.086-.173-.086-3.025-2.42-3.717,1.469-3.63,2.42,4.581,3.025.173.173-.086.173-1.383,1.9,2.074,2.161,3.89-2.161.173-.086.086.173,1.815,3.284,3.025-.691.173-.086.086.259.432,5.791,2.939,1.729.259.086-.173.173-1.642,2.42Z" transform="translate(166.863 2465.709)" fill="#fff" stroke="#f5f5f5" stroke-width="2" fill-rule="evenodd"/>
    <path id="Path_142" data-name="Path 142" d="M692.981,290.8l-.173-.346,6.656,3.63,2.16,5.618,3.285,4.149,3.889,6.31,2.852,4.667,3.284,2.507,1.037,2.852.865,2.679,4.062,1.9.6,4.062,4.149,5.272.346-4.581-.605-3.544,3.285-.259,1.21-.519L733,326.752l-2.506-5.186h-3.63l-3.8-1.642-4.408-3.2-2.852-7.26-1.556-4.581,3.371-1.9,6.31-.346-14.175-9.594-10.026-9.075-4.668-8.643-6.31-4.408-2.938-3.717-1.988.864-.519,2.161,3.717,2.593,2.074,3.112-1.124,1.383-1.815-.432-.605,2.593,3.63,2.766,3.63,8.211-.259-.173Z" transform="translate(149.211 2469.046)" fill="#fff" stroke="#f5f5f5" stroke-width="2" fill-rule="evenodd"/>
    <path id="Path_143" data-name="Path 143" d="M70.1,234.358l.864,1.815-.086,4.149,2.852,1.556h0l2.074,1.3,1.9-1.3.086-.086h.086l2.852.173,3.112-1.9.346-2.247v-.259h.173l3.457.519,1.815-.605h.173l.086.086,1.3,2.766,3.025,1.037.691-.6.259-3.371-1.988-1.469-.086-.086v-.087l-.173-2.161-1.21-1.21-1.9-1.383H89.72v-.173l.259-3.284-3.8-2.939-.086-.086v-.086l-.346-2.247-1.469-.605-.086-.087v-1.556l-.605-1.037-2.161-.086-.346.864v.086H80.9l-.864.173h-.086l-.086-.086-.605-.692h-.951l-1.383,1.3v2.507l-.864,1.124.691.519.086.086v.086l.086,1.21v.173h-.173L75.2,226.06l-.691,1.124.432,2.074v.173Z" transform="translate(232.41 2475.613)" fill="#fff" stroke="#f5f5f5" stroke-width="2" fill-rule="evenodd"/>
    <path id="Path_144" data-name="Path 144" d="M61.12,210.4l-1.556,2.074-.864,1.21.346,1.729,1.729.778-.259,2.593,4.322,2.679.086,5.013,3.371,6.4,4.667-4.754-.432-2.074v-.086l.086-.086.691-1.21.086-.173h.086l1.469.086-.086-.864-.778-.605-.173-.086.173-.173.864-1.3v-2.334L71.838,216.1l-3.025-.691h-.086l-2.247-1.469v-.086l-.086-.087-.519-1.815-1.124-.173-1.124.6-.086.086-.086-.086Z" transform="translate(233.957 2476.753)" fill="#fff" stroke="#f5f5f5" stroke-width="2" fill-rule="evenodd"/>
    <path id="Path_145" data-name="Path 145" d="M64.322,197.7l-1.9.864-.951,1.815-1.3.346L60,202.972l1.988,1.124-.519,4.149,2.334,1.988,1.037-.605h.086l1.3.259H66.4v.086l.605,1.9,2.074,1.383,3.112.691h.086v.087l3.112,3.111,1.383-1.21v-.086h1.3l.086.086.605.691.605-.086.346-.864-1.383-1.815v-.173l-.173-1.815-1.469-.432-.086-.086h-.086l-.432-.951v-1.642l-.691-.951h0v-3.371l-4.927-6.482Z" transform="translate(233.78 2478.476)" fill="#fff" stroke="#f5f5f5" stroke-width="2" fill-rule="evenodd"/>
    <path id="Path_146" data-name="Path 146" d="M70.965,179.54l-3.112-.259-2.247-2.161.259-1.988L63.7,174.7l-1.21,3.025L58,181.528l.346,2.507,2.334-.087,1.815,1.469.691,3.112,1.988-.259,2.42.519v1.556l-3.025,3.889,5.618.173,7-5.1-.605-.864v-.086h0v-1.21l.086-.086.778-.864h.086l1.124-.691-.086-.951-1.469-.086-.691.605-.173.086-.086-.086-1.21-.692h-.086v-.086l-.778-1.469-.086-.086h0v-1.469h0l.691-1.3L71.4,179.8h-.086v-.086Z" transform="translate(234.052 2481.597)" fill="#fff" stroke="#f5f5f5" stroke-width="2" fill-rule="evenodd"/>
    <path id="Path_147" data-name="Path 147" d="M82.921,158.132,82.4,159l-3.717,2.161-1.9,3.112-2.074,4.149-.173,3.371.519,1.988-1.469,1.815-.086,1.469h.086l3.544.259,1.469-.691h.086l2.766.086,1.556-1.469h.173l2.074.087h.086l.086.173.864,3.025.778-.519h.086l1.556.259H88.8l.086.086.778,1.037,3.976-.346,2.42-1.556,2.679-3.889.086-.864-1.815-2.247-.086-.086h0l-.259-2.074-4.494-.778h-.086v-.086l-2.161-1.556h-.086v-.086L86.9,160.379h0l-.864-2.161-.864-.519-1.815.519h-.086Z" transform="translate(231.949 2483.904)" fill="#fff" stroke="#f5f5f5" stroke-width="2" fill-rule="evenodd"/>
    <path id="Path_148" data-name="Path 148" d="M72.5,197.013l4.927,6.4.086.087v3.371l.691.864v1.729l.346.864,1.556.432,2.247.086.691-1.21v-.086h.086l4.322-3.457.432-3.544-1.9-1.729h0v-.086l-.951-2.074h-.086v-.086l.173-3.544L79.415,192Z" transform="translate(232.084 2479.25)" fill="#fff" stroke="#f5f5f5" stroke-width="2" fill-rule="evenodd"/>
    <path id="Path_149" data-name="Path 149" d="M88.847,208.7l-4.235,3.457-.778,1.3v.086h-.173l-2.161-.086.086,1.642,1.383,1.9,2.334.086h.086l.086.173.605,1.124.086.087h0v1.383l1.383.691h.086v.086l.432,2.334,3.63,2.852,1.815-.864.519-1.124-.346-1.815-.519-1.037v-.086l.086-.087.691-1.383.086-.086h.086l3.112-1.469,1.9-1.729v-2.074l-.432-1.383-1.642-1.3h-.086v-.086l-.519-1.469-1.642-.173-2.42,1.21h-.173l-1.729-.173H90.4l-.086-.087Z" transform="translate(230.863 2476.984)" fill="#fff" stroke="#f5f5f5" stroke-width="2" fill-rule="evenodd"/>
    <path id="Path_150" data-name="Path 150" d="M101.165,217.1l-.086.259v.173l-1.988,1.815h0l-3.2,1.469-.691,1.21.519,1.037h0l.346,1.9v.086l-.086.086-.519,1.21v.086h-.086l-1.9.864-.173,3.2,1.815,1.383h0l1.3,1.21.086.086v.087l.173,2.161,1.9,1.383,2.766-.432,5.532-2.852.691-1.037.086-4.581h0l.519-3.2h0v-.086l2.507-2.852-1.988-2.161-1.124.778h-.086l-1.037.259-.086.086v-.086l-1.556-.864-.086-.086h0l-1.383-2.507Z" transform="translate(229.262 2475.844)" fill="#fff" stroke="#f5f5f5" stroke-width="2" fill-rule="evenodd"/>
    <path id="Path_151" data-name="Path 151" d="M87.573,195.174l-.173,3.544.951,1.988,1.9,1.729.086.086v.086l-.519,3.63,1.556,1.9,1.642.173,2.507-1.21h.086l1.642.173.086-.951h0l.086-.086,1.124-1.556h0l2.247-2.42v-1.556l.086-.086,1.3-1.383-.259-2.766-1.642-.951v-.086h-.086l-.691-1.469-3.457.173-.778.951-.173.173-.086-.086-3.025-1.815-.864-.259Z" transform="translate(230.063 2479.1)" fill="#fff" stroke="#f5f5f5" stroke-width="2" fill-rule="evenodd"/>
    <path id="Path_152" data-name="Path 152" d="M102.657,203.8l-2.161,2.42-1.124,1.556-.173.951.519,1.556,1.729,1.3h0l.086.086.432,1.469v.086h0v1.469l2.334.086h.086l.086.086,1.383,2.593,1.383.778.864-.259,1.3-.778.173-.086.086.086,2.161,2.42,1.469.519,1.3-.086,4.322-3.889h0l2.334-1.556-.519-1.469h0l-.951-2.42-4.408-7.433-2.679-.173-.951.864-.086.087-.173-.087-1.037-.691h0l-1.124-.778-.519.432v.086h-.086l-1.815.432-.086.086-.086-.086-1.037-.432-.778.691h-.086Z" transform="translate(228.462 2477.825)" fill="#fff" stroke="#f5f5f5" stroke-width="2" fill-rule="evenodd"/>
    <path id="Path_153" data-name="Path 153" d="M98.089,191.551l.691-.778,1.037-1.556V185.76l-1.642-.864h0l-.086-.086-1.21-1.988h0l-.346-1.988-2.247,1.383H94.2l-4.149.432h-.173l-.086-.086-.778-1.124-1.3-.173-.951.519-.259.173-.086-.259-.864-3.112-1.9-.086-1.469,1.383-.086.086h-.086l-2.852-.086-1.383.605L77,181.957v1.21l.778,1.383,1.037.605.691-.519.086-.086h.086l1.642.086.173.086v.086l.173,1.3.086.086-.173.086-1.3.778-.691.778v.951l.605.951,5.7,3.025,3.717-2.074.086-.087.086.087.951.259h0l2.852,1.729.778-.864.086-.086h.086Z" transform="translate(231.474 2481.082)" fill="#fff" stroke="#f5f5f5" stroke-width="2" fill-rule="evenodd"/>
    <path id="Path_154" data-name="Path 154" d="M100,179.945l.346,2.161,1.21,1.9,1.642.951h.173v3.889l-.086.087-1.037,1.469h0l-.691.864.691,1.383,1.729,1.037.086.086v.086l.259,2.939v.086l-.087.086-1.3,1.383v1.3l1.9-.173.778-.691.086-.086.086.086,1.124.432,1.815-.432.605-.432.086-.173.173.086,1.124.864h0l.951.605.864-.778.086-.086h.086l2.766.173,1.037-1.642.778-1.988-.691-.605h0v-.086l-1.3-1.556h0v-.087l-1.037-3.025v-.173l.691-2.161.086-.086h0l2.334-2.679h0l1.383-1.3.346-1.642-1.815-2.161-4.322.086h-.086l-.086-.086-4.754-3.025-.086-.087v-.086l.086-1.815-.519-.346-.519.519-.086.086h0l-4.149.519v.432h0l-.086.086Z" transform="translate(228.353 2481.624)" fill="#fff" stroke="#f5f5f5" stroke-width="2" fill-rule="evenodd"/>
    <path id="Path_155" data-name="Path 155" d="M121.062,185.7l-1.124,1.037-2.247,2.679L117,191.491l.951,2.939,1.21,1.556.778.691.086.086v.173l-.778,2.161v.086h0l-1.124,1.556,4.322,7.347,3.025-1.815.086-.086h0l3.889-.086,4.149-2.507-.864-2.506-4.062-5.272-2.074-.864h-.086v-.086l-1.556-1.642-.086-.173.086-.086,1.124-1.556.519-1.9-.951-.951-2.074,1.642-.173.173-.173-.173-1.9-2.074-.086-.086v-.086Z" transform="translate(226.047 2480.104)" fill="#fff" stroke="#f5f5f5" stroke-width="2" fill-rule="evenodd"/>
    <path id="Path_156" data-name="Path 156" d="M128,189.432l.259.259.086.086v.086l-.519,2.161h-.086l-1.037,1.469,1.383,1.556,2.074.864h.087V196l4.149,5.272v.086h.086l.864,2.507,1.3-.259,1.037-1.469.087-.086h.086l2.507-.173h.086l.086.086.951.864,1.556-.864.519-5.445-2.507-1.383-.086-.086v-.087l-.173-2.247-1.124-1.037-1.815.605h-.173L131.627,189Z" transform="translate(224.73 2479.657)" fill="#fff" stroke="#f5f5f5" stroke-width="2" fill-rule="evenodd"/>
    <path id="Path_157" data-name="Path 157" d="M135.3,189.245l3.63,1.9,1.9-.605.086-.086.086.086,1.3,1.21h.086v.087l.086,2.247,2.507,1.383.173.086v.086l-.519,5.532,7.52.086.864-.605.086-.086h.086l2.42.086h.173v.173l.691,1.9,1.988.864h.086l1.729,1.729,2.679-2.766.086-.086h.086l6.742.173.086-4.235v-.087l.086-.086,1.3-1.383-1.469-1.469-3.544.864h-.173l-5.359-3.112v-.087h-.087l-3.2-5.964-4.84-2.939-7.433-.346-2.506,1.729-.086.086h-.086l-2.852.086-.864,1.383h-.086Z" transform="translate(223.564 2480.362)" fill="#fff" stroke="#f5f5f5" stroke-width="2" fill-rule="evenodd"/>
    <path id="Path_158" data-name="Path 158" d="M117.8,178.3l3.2-1.383-.432-1.556h0v-.086l.951-5.359.086-.173h.173l2.766.173L128,166.541l-.432-4.062H124.2l-.086.259-.259-.259-3.8-3.371-2.247.086-.086.086-.086-.086-2.679-2.247h0l-.086-.086-.432-1.988-1.988-1.383-.778.519-.346,1.815v.259l-.173-.086-5.013-.346-.086-.086h0l-1.642-1.469-4.84-1.3h-.086l-2.593-1.815h0V150.9L95.5,149.6l-1.3,1.3-.778,3.2h0v.086l-1.469,2.161v.086h-.086l-3.371.692.864,1.988,2.852,5.359,2.074,1.556,4.667.864h.173v.173l.259,2.074,1.9,2.247v.432l3.889-.519.519-.519.173-.086h.086l.864.432.086.086v.086l-.086,1.9,4.581,2.939,4.408-.086h.086l.086.086Z" transform="translate(229.913 2485.002)" fill="#fff" stroke="#f5f5f5" stroke-width="2" fill-rule="evenodd"/>
    <path id="Path_159" data-name="Path 159" d="M143.03,181.614l-2.679-2.593-.086-.086v-.173l1.037-3.8-1.988-2.507-1.729.086h-.173l-4.581-2.939-3.457,3.371-.086.086H129.2l-2.679-.173-.951,5.186.432,1.556.086.173-.173.086-3.371,1.556-.346,1.642.173,2.593,1.729,1.9,2.074-1.729.173-.086.173.173.519.519,3.976-.519h.086v.086l1.988,1.037,3.63-2.247.864-1.383.086-.086h.086l2.939-.087Z" transform="translate(225.341 2482.289)" fill="#fff" stroke="#f5f5f5" stroke-width="2" fill-rule="evenodd"/>
    <path id="Path_160" data-name="Path 160" d="M140.473,274.661l-.173,2.593,1.383,3.2,1.556-.259,1.124-1.037,2.42,1.124-.173,1.556L146,283.3l.778.951,2.247.778.864,3.112.951,3.976-1.037,2.507,1.037,1.988,2.593-1.556,1.124.346.778,1.642.519,2.939,1.729,1.3,1.988-1.383,1.988.086,3.544,1.642-.087,1.642.778,1.383,1.815.346,1.469-1.642L170.638,305l2.074,1.21-.432,3.2.432,1.815,1.988,2.247,1.729.519,1.729-1.037,1.3.518,1.037,1.988,4.149,1.383,1.815-1.383,1.815-2.593-3.2-7-.259-.173h-.086V305.6l-.692-2.074-.086-.173.173-.086,1.729-1.383.346-1.21-.778-1.9-4.494-1.383-2.074.605-1.124,2.506v.173h-.173l-2.679-.259-.086-.087H174.7l-2.42-2.506-4.581-1.037h-.086l-.086-.086-.951-1.9-.086-.173.086-.087,1.815-1.9-1.124-1.124-.086-.087v-.086l.086-1.21v-.173h.173l1.642-.519.173-2.766-2.334.173-1.124.691-.346.259v-.346l-.432-3.284V284l.173-.087,1.037-.432.086-1.9-1.037-1.21-.086-.087v-.086l.173-4.581-1.3-1.815h0v-6.223l-1.3-2.766h0v-.086l.605-2.507-1.642-1.815-.086.259v.086l-.778,2.766h-.086l-.6,1.21v.086h-.086l-4.84,2.679-1.124,2.247-.087.086h-.086l-3.284,1.037h0l-1.729.259-3.371,2.939-.086.087h0l-4.927.346Z" transform="translate(222.885 2469.969)" fill="#fff" stroke="#f5f5f5" stroke-width="2" fill-rule="evenodd"/>
    <path id="Path_161" data-name="Path 161" d="M111.005,269.5l2.161,2.074-.173,2.247-.605,1.815,1.21,2.247,2.506-1.124,1.3-2.507,1.469-1.556,3.457.691,1.9-1.556,1.383-.173,1.037.778,3.457-.173,2.593-.691,1.729-.432.086-.086.086-1.556-.173-1.3L132.7,265.7h0v-.086l.259-3.025-1.988-2.42v-.086h0l-.778-2.852h0l-.086-1.642-1.642-.518h0l-4.754-2.593-.173-.087v-2.679l-4.754-.778v-.087h0l-5.013-2.852-.086-.086v-1.729l-.691-1.21-2.42-.259h-.086l-.086-.086L106.857,237l-4.667,2.42H102.1l-2.766.519-.173,3.457v.086h-.086l-.778.691.259,2.679,1.383,1.9,2.161.432h.086v.086l3.8,3.63.086.087v2.939l-.086.086-1.642,1.9-.086,1.815,1.3.086,1.556-.691.346-.087v.259l.086,3.112.951,1.383,2.247.432h.173v.173Z" transform="translate(228.584 2473.144)" fill="#fff" stroke="#f5f5f5" stroke-width="2" fill-rule="evenodd"/>
    <path id="Path_162" data-name="Path 162" d="M135.6,257.537l.086,1.556.691,2.766,1.988,2.506h.086v.086l-.259,3.025,1.642,2.506h.086v.087l.173,1.383h0l-.086,1.383,4.667-.346,3.371-2.939.086-.087h.086l1.729-.259,3.2-.951,1.124-2.247h.086v-.086l4.84-2.68.605-1.124.864-2.766.259-1.21-2.42-3.457-.951-.951-1.124.778h-.086l-.951.173-.173.086-.086-.173-1.9-2.766-.605.432-2.42,2.593h-.086l-1.383.864-.086.086-.086-.086-1.815-.432h-.086l-2.766-2.506L142,251.4l-1.729.259-2.852.346-1.124,1.642-.086.692.951.432.086.086v.173l-.346,1.815v.173h-.086Z" transform="translate(223.523 2471.19)" fill="#fff" stroke="#f5f5f5" stroke-width="2" fill-rule="evenodd"/>
    <path id="Path_163" data-name="Path 163" d="M127.9,249.293l.086,2.593,4.667,2.506,1.642.519,1.21-.519.259-1.556-.864-.519h-.173v-.173l.086-.864v-.173l1.3-1.729v-.086h.086l3.025-.346h0l1.815-.259h.086v.086l1.988,1.383h0v.086l2.766,2.42,1.642.346,1.383-.778,2.42-2.507h0v-.086l.605-.432-1.815-2.247-.086-.086.086-.173.778-.864-.173-1.9-3.63-.259H147l-.086-.086-2.074-2.939-2.593-.173h-.086l-.086-.087-.951-2.42-2.852-3.371-.432.432-.432,2.593h-.086v.086l-.6.951-.086.086h-.173l-4.408-1.556v4.667h0l-.951,1.124.778,1.556.086.086v.086l-.432,1.124v.086h0Z" transform="translate(224.568 2473.47)" fill="#fff" stroke="#f5f5f5" stroke-width="2" fill-rule="evenodd"/>
    <path id="Path_164" data-name="Path 164" d="M115.774,223.232l-1.21.086h-.086v-.086l-1.383-.432-2.42,2.852-.519,3.025-.086,4.667v.086l-.086.086-.691,1.037h-.086v.087l-.605.259,3.544,5.445,2.42.259h.086v.086l.778,1.383h.086v1.642l4.84,2.852,4.667.778,3.544-3.284.346-.951-.864-1.729-.086-.087.086-.086.951-1.124v-4.581l-1.642-.086h-.086l-.086-.173-1.21-2.506-2.679-.519-.864.778-.259.173-.086-.173-1.642-2.852h-.086v-.086l-.259-3.111h-2.939l-.086-.087Z" transform="translate(227.186 2475.071)" fill="#fff" stroke="#f5f5f5" stroke-width="2" fill-rule="evenodd"/>
    <path id="Path_165" data-name="Path 165" d="M123.882,216.9l-2.247,1.556-4.235,3.8,1.21,3.544h3.111v.173l.259,3.2,1.556,2.593.778-.691.086-.086h.086l2.852.519h.173v.173l1.21,2.507,1.469.087v-.087l.346.087,4.494,1.642.519-.864.519-2.507v-.086h0l.605-.691.951-1.556v-1.124l-1.21-.691-.086-.086v-.086l-.173-1.3-.778-.432-.432.605-.086.086h-.086l-3.025.173-.346.864-.086.086h-.173l-1.556-.259H129.5v-.086l-1.642-3.025v-.086h0l-.432-4.495Z" transform="translate(225.992 2475.871)" fill="#fff" stroke="#f5f5f5" stroke-width="2" fill-rule="evenodd"/>
    <path id="Path_166" data-name="Path 166" d="M141.151,230.01v1.21h-.086v.086l-.864,1.469,2.939,3.457v.086h0l.432,1.037,2.161-.605h.086l2.852-.432.259-2.247.086-.086h.086l1.469-.864h0l3.025-.778.259-2.42-.778-4.408L147.46,223.7l-3.284.951-.259,3.284v.086l-.086.086Z" transform="translate(222.899 2474.948)" fill="#fff" stroke="#f5f5f5" stroke-width="2" fill-rule="evenodd"/>
    <path id="Path_167" data-name="Path 167" d="M123.6,210.874l.778,2.247h0l.605,1.556,3.63,3.717h0v.086l.519,4.495,1.469,2.939,1.3.173.346-.778.086-.173h.086l3.111-.086.432-.778.086-.173.173.086,1.037.605h.086v.173l.173,1.3,1.21.691,2.507-1.815.346-3.457v-.086l.086-.086,3.284-.864.173-4.927v-.173h.173l3.025-.173,1.556-1.3.086-.086.173.086,3.2,1.988,2.507-3.457.086-.173.173.086,3.025,2.161,2.074-.951.951-1.037-1.815-2.334-3.63-3.717-2.074-.864-.086-.086V205.6l-.691-1.815L151.6,203.7l-.864.605-.086.086h-.086l-7.692-.086-1.729,1.037h-.173l-.086-.086-1.037-.951-2.334.173-.951,1.383-.086.087h-.086l-1.556.346-4.322,2.593-.086.087h-.086l-3.8.086Z" transform="translate(225.151 2477.662)" fill="#fff" stroke="#f5f5f5" stroke-width="2" fill-rule="evenodd"/>
    <path id="Path_168" data-name="Path 168" d="M156.579,218.188l-3.112-1.988-1.556,1.21-.086.086h0l-2.852.086-.173,4.754,5.7,1.815h.086v.173l.864,4.495h0v.086l-.259,2.247,1.469-.605h.086l4.754-.6v-.086l.086.086,3.371,1.037h.086v.086l1.037,1.729,1.729-1.556-.086-3.8-.778-1.815-2.334-2.593-5.877-1.037h-.087l-1.383-1.124-.086-.086h0Z" transform="translate(221.732 2475.967)" fill="#fff" stroke="#f5f5f5" stroke-width="2" fill-rule="evenodd"/>
    <path id="Path_169" data-name="Path 169" d="M167.2,233.969l-1.642,1.556-.173.173-.086-.259-1.21-1.9-3.2-1.037-4.667.691-1.729.692h-.086l-3.112.778-1.383.778-.346,2.334v.173H149.4l-3.025.346-2.074.605.346.864,2.593.173h.086l.086.087,2.074,2.939,3.717.259h.173v.173l.173,2.247h0v.086l-.778.864,1.729,2.074h0l.086.173,1.988,2.852.864-.173,1.124-.778.173-.086.086.086,1.21,1.037h0v.086l2.507,3.544v.173l-.173.519,1.9,2.161.086.086v.086l-.605,2.507,1.21,2.593h.519l.691-1.642h0l.951-2.074.086-.086h1.729l.086.086,2.074,1.3.432-.691-.346-2.334-1.469-1.469-.086-.087v-.086l.346-2.247.086-.259h.173l3.8.519,3.112-1.037.432-2.507-1.124-.173-.086-.086h0l-.778-.864-.086-.173.173-.173,1.642-1.21.086-.519-1.469-.173h-.086l-.086-.173-.173-.951h0v-.086l.864-1.469-.519-.432-2.766,1.469-.086.086H173l-3.284-.691h-.086l-.086-.087-1.383-2.247h0l-.864-2.766h0Z" transform="translate(222.343 2473.754)" fill="#fff" stroke="#f5f5f5" stroke-width="2" fill-rule="evenodd"/>
    <path id="Path_170" data-name="Path 170" d="M171.9,240.675l.432,1.3,1.3,2.161,3.112.6,2.852-1.556.086-.086.086.086.778.605.173.087-.086.173-.864,1.556.173.691,1.469.259h.173v.173l-.086.864-.086.086v.086l-1.556,1.124.519.605,1.21.173h1.988l1.988-1.815v-4.754l.259.086,1.815.087,1.9-2.074,1.124-3.025v-.086h.086l1.815-1.988,2.074-5.359-1.037-.864h-.086l-1.21-1.383-1.642.259h-.086l-.086-.086-2.247-1.988-3.371-.173-.086,1.21h0l-.173,1.642v.086l-.086.086-2.42,1.988-.086.087h-.086l-1.988-.951-1.469-.086-1.556,5.532v.173h-.173l-3.284.519Z" transform="translate(218.598 2474.568)" fill="#fff" stroke="#f5f5f5" stroke-width="2" fill-rule="evenodd"/>
    <path id="Path_171" data-name="Path 171" d="M185.327,251.586l-2.074,1.815v.086h-1.988l-.432,2.679v.173h-.173l-3.284,1.037v.086h-.086l-3.63-.432-.346,1.988,1.469,1.383.086.086v.087l.346,2.42v.173l-.691.864-.086.173-.173-.086-2.161-1.383H170.72l-.864,1.9h0l-.778,1.729-.086.173H168.3v5.877l1.21,1.815h.086v.086l-.173,4.581,1.124,1.21v.173l-.086,2.161v.173h-.173l-1.037.432.346,2.766.951-.605h.086l2.593-.173h.259v.259l-.259,3.112v.173l-.086.086-1.642.432-.086.951,1.21,1.3.173.086-.173.173-1.815,1.9.864,1.729,4.494,1.037h.173l2.42,2.506,2.42.259,1.124-2.507v-.086l.086-.086,2.161-.518.259-1.9.259-1.988.086-.173h.086l2.679-.605.346-2.161v-.086h0l2.247-3.8v-.087h.087l3.717-2.161h.259l1.815,1.037h.951l.691-2.42v-.173h.086l1.9-.6,1.037-.778-1.469-1.556-.864.432-1.383.691v.086l-.086-.086-6.05-1.9v-.086h0l-1.383-1.124h-.086v-.086l-1.556-3.544-.086-.086v-.086l.778-2.074v-.086h.086l2.852-1.729v-.086l.086.086,1.556.086h.086l.086.086,1.3,1.642v.173l.086,2.679,1.124.951,1.469-.691h.086l1.383.086h.086v.086l.951.605h0v.086l2.161,1.988.951-.519.691-1.383-1.3-1.729v-.086h0l-.173-1.383v-.173l1.383-2.506.259-2.074-1.124-.173h0l-3.889-1.729h-.086l-1.642-1.383h0l-.086-.086-.605-1.815-1.556.432h-.173l-.086-.086-.692-1.037h0v-.086l-.259-1.729h0l-.259-1.037-1.815-.432h-.086l-.086-.173-.173-2.334-4.149-.173h-.173V251.5Z" transform="translate(219.086 2471.177)" fill="#fff" stroke="#f5f5f5" stroke-width="2" fill-rule="evenodd"/>
    <path id="Path_172" data-name="Path 172" d="M196.762,207.342,194,208.552l-.086.086-.086-.086-7.865-3.025-2.679,3.025-.173.173-.173-.173-1.21-1.037h-.086v-4.84l-.691-1.556v-.173l.086-.086,6.31-7.087-.259-3.025-1.815-2.247-2.507.432-3.544,2.334h-.173l-3.2-.086-.432,1.124,2.247,2.161.173.087-.173.173-2.766,2.852h0l-1.383,1.556-.173,4.322v.259l-.173-.086-6.828-.086-2.679,2.766,1.729,1.729h0l1.9,2.42.086.173-.086.173-1.124,1.21h0v.086l-2.247.951-.173.086-.086-.086-2.939-2.161-2.42,3.457.519,2.507,1.3,1.037,5.964,1.037h.086v.087l2.42,2.593h0v.086l.778,1.9h.086v.086l.086,3.889v.087h0l.086,6.482.259.778,1.383-3.544V231.2h.173l3.284-.519,1.556-5.532v-.173h.173l1.729.086h0l.086.086,1.815.864,2.247-1.9.259-1.556v-1.642h.259l3.717.173h0l.086.087,2.161,1.988,1.642-.259.173-.086.086.086,1.3,1.556,1.037.778,1.729-1.988,1.3-1.815-1.556-1.3v-2.507l.086-.086,5.877-2.42-.259-3.2Z" transform="translate(220.443 2479.725)" fill="#fff" stroke="#f5f5f5" stroke-width="2" fill-rule="evenodd"/>
    <path id="Path_173" data-name="Path 173" d="M353.632,137.374l1.556.173.346-1.124L354.5,135.3l-1.3.432Z" transform="translate(193.999 2486.943)" fill="#fff" stroke="#f5f5f5" stroke-width="2" fill-rule="evenodd"/>
    <path id="Path_174" data-name="Path 174" d="M359.5,146.606l1.9.691,1.9-.346-.778-2.852-2.334,1.3Z" transform="translate(193.144 2485.749)" fill="#fff" stroke="#f5f5f5" stroke-width="2" fill-rule="evenodd"/>
    <path id="Path_175" data-name="Path 175" d="M352.212,145.661l-2.247.086-1.124,4.062-3.717-3.371-1.037,3.457,3.889,4.322.259,3.717-7.174-6.4-.259-4.062,3.025-3.717.432-6.05-1.21.6-1.469,4.062-2.247,1.988-2.334.691-2.334,3.371.173,8.989-5.532,8.643.346,5.272h5.618l4.667,5.532v5.359l-3.285,3.889.864,1.815,2.593,1.469-4.84,1.124-1.383-5.013,3.63-6.4-1.556-4.667-5.532-.864-3.025,2.939-.346,6.655-5.1,5.186-4.667,1.729-3.112,3.371-10.631-6.482v-3.2l7.087,3.284,3.8-1.469,5.964-3.889,4.062-8.125-.691-4.322,6.828-16.422.864-2.766-.864-3.717,4.581-4.322.864-5.964-3.457-4.667,3.544-.432-.519-4.408-3.544-.259-.259,3.2.778,1.9-2.247-.864-3.457,2.593-4.062,5.186-3.112,3.025-4.754,1.124-2.507,2.42,2.507,3.2-2.679,4.927-3.717,1.124-.173,1.642,3.284,3.371-1.124,3.2.6,1.988,1.21,1.815-4.149,3.889-1.383-2.161-1.124-4.84-4.408-7.087-2.506,2.074,1.469,2.679.086.086-.086.086-3.112,5.532,1.21,3.889v.173l-1.9,2.939-.087.086h-.086l-3.025,1.037-2.074,2.42-.086.086h-.086l-7.779.346-3.889,3.2-.086.086h-.086l-2.507.086-.259,6.569v.086h0l-3.112,4.322,1.988,4.149,7.519.519h.087v.087l3.544,2.766.086.086v.086l.173,3.544,1.21,1.21,8.557.432h.086l.086.086,2.679,3.371h0v.086l.259,5.445,1.469,1.9v.173l-.086,3.544h5.791v.086l5.186,4.667,7.088,3.112h.086v.086l2.679,4.322,4.581,2.852,4.754.432,3.8-2.852.173-.086.086.173,3.544,3.2,3.63-.086h.086l.087.086,2.679,3.976,1.383.087h.086l.086.086,2.593,2.593,5.359-6.828.346-4.408v-.086h0l3.544-4.927L358,221.721l-4.062-3.025-.086-.086v-.086l1.037-5.791-2.679-3.717h-.086v-.086l.864-8.038-3.371-4.408-.086-.087v-.086l1.383-4.062-1.3-3.2-.173-.173.259-.086,4.408-1.21,1.815-4.667-.951-5.532-4.581-1.124h-.087v-.086l-4.235-5.532-.086-.086.086-.087.778-3.371.086-.086h.087l6.223-2.852.691-2.507-2.679-5.618v-.173l.691-3.63v-.173h.173l2.679-.432-2.506-5.532h-.086Z" transform="translate(204.84 2488.164)" fill="#fff" stroke="#f5f5f5" stroke-width="2" fill-rule="evenodd"/>
    <path id="Path_176" data-name="Path 176" d="M254.023,298.279l3.2-.086,2.593,4.408,2.074.346.087-.087.691-1.815v-.086h.086l3.63-3.457.6-2.679v-.087h.086l2.247-2.507v-.086l.173.086,2.766.519.691-1.124.519-1.988-.778-2.074-2.42-.951h-.086v-.173l-.346-1.21-.087-.173.087-.086,1.124-1.3.346-3.457v-.087l.086-.086,3.976-3.889.173-.087.173.087,2.161,2.247.173.173-.086.086-1.21,1.729,1.556.346h.087l3.976,2.852,3.112-.432h.086l2.939,1.642,2.766.086,3.889-2.593-6.828-5.1h-.086V277.1l-3.284-6.4h0l-2.42-5.445-1.9-.432h0l-3.976-1.642-.086-.087h0l-1.988-1.9-.6,1.556-.087.173h-.173l-3.111-.086-.778.864h-.087l-1.988,1.037-.086.086h-.086l-1.469-.346-1.037.778h-2.161l-2.593-1.124-1.037,2.074-.086.087h-.086l-3.544.691-2.334,3.976v.173h-.173l-6.31-.259-1.815,3.717.173,3.544v.173h-.173l-1.729.519-.519,2.852,1.383,3.284h0v.086l.605,2.161,2.679.864h.086l2.507,2.247.086.086v.086l.087,2.334,3.63,3.2h.086v.086l.173,2.161Z" transform="translate(208.992 2469.86)" fill="#fff" stroke="#f5f5f5" stroke-width="2" fill-rule="evenodd"/>
    <path id="Path_177" data-name="Path 177" d="M220.539,296.506l6.31,1.469,3.63,2.247,2.161-1.729,3.112,1.729,10.631,1.988,3.8-1.729.086-.086-.259-1.988-3.63-3.2-.087-.086v-.086l-.086-2.334-2.42-2.161-2.679-.778-.173-.086v-.086l-.605-2.334-1.469-3.371v-.173l.605-2.852-3.025-1.383-2.247,1.124h-.173l-.086-.086-1.815-2.334-3.976-1.383-4.408,1.383.259,1.21h0v.086l-.087,3.976v.173h-.086l-6.05,4.495-.173,2.247,4.581,2.679.173.086-.086.173Z" transform="translate(212.397 2467.744)" fill="#fff" stroke="#f5f5f5" stroke-width="2" fill-rule="evenodd"/>
    <path id="Path_178" data-name="Path 178" d="M191.489,306.471l1.3-1.729,4.235-.346.346-3.025,2.074-1.124,2.161.086,2.593,2.074,1.556-1.469-1.9-3.2-.951-3.111,2.161-2.334,1.9-.518,2.939,3.112,6.137.432h0v-.087h0l1.642-3.025-4.408-2.679-.173-.086v-.086l.173-2.42v-.086l.086-.086,6.05-4.494.086-3.889-.519-2.766-1.642-1.556-.864.519H216.3l-1.556-.346h0l-.086-.086-6.4-5.445-1.124.259-.346,2.161h0v.086l-1.3,2.507.173,1.21,1.3,1.815.086.086-.086.173-.778,1.556v.086H206.1l-1.124.692H204.8l-.086-.086-2.247-2.161-.864-.6-1.3-.086-1.469.691h-.173l-.086-.086-1.3-1.037-.086-.087v-.086l-.086-2.766-1.124-1.469-1.469-.173-2.679,1.642-.692,1.988,1.556,3.457L194,279.5l5.877,1.9,1.3-.6h0l1.037-.519.086-.086.173.173,1.642,1.729.173.173-.173.173-1.21.951-.087.086h0L201,284l-.691,2.507-.086.086h-1.3l-1.815-.951-3.63,2.074-2.161,3.717-.346,2.247v.173H190.8l-2.679.605-.259,1.9h0l-.259,1.815,4.408,1.383h.087l.086.086.864,1.988.086.086-.086.086-.432,1.383v.087l-.086.086-1.642,1.3Z" transform="translate(216.468 2468.843)" fill="#fff" stroke="#f5f5f5" stroke-width="2" fill-rule="evenodd"/>
    <path id="Path_179" data-name="Path 179" d="M238.42,217.8l-1.124,1.9-.778,1.815h0l-3.63,4.84h0l-5.445,5.359h-.086l-4.581,2.074-.086,2.074,1.469,2.852.086.087-.173.086-1.9,2.334-.346,3.025v.086h-.086l-1.21,1.642h-.086l-.086.086-4.322.173-.605,2.679V249l-.086.086-1.815,1.124-.173.173-.087-.173-1.729-1.9-2.42,3.8-.086.086h-.086l-3.976.432-3.371,3.976.605,1.9,1.556,1.3,3.8,1.642,1.3.173,1.3-.346h.086l.086.087,6.482,5.532,1.383.346.951-.518.173-.087.086.087,1.815,1.729h0l.086.086.173,1.21,4.494-1.383h.086l4.062,1.383.086.086h0l1.729,2.247,2.247-1.037.086-.086.086.086,3.112,1.469,1.642-.432-.086-3.457h0v-.086l1.815-3.8v-.173h.173l6.4.259,2.247-3.889-1.642-2.42-.086-.087v-.086l.259-2.334h0l.605-4.235L244.384,249v-.086H244.3l-.692-1.988-.086-.086.086-.087,2.507-3.025-.519-2.593h0l-.864-4.581v-.086l.086-.086,2.074-2.939-.086-3.371-2.42-5.791-4.149-2.42h-.086v-.086l-.605-2.852Z" transform="translate(214.568 2475.749)" fill="#fff" stroke="#f5f5f5" stroke-width="2" fill-rule="evenodd"/>
    <path id="Path_180" data-name="Path 180" d="M272.318,189.3H269.9l-3.544,3.112-.086.086h-.087l-3.111.173H262.9l-.086-.086-1.037-1.642-5.1,4.494-.778,3.025h-.086v.086l-5.445,4.84L244.4,213.5l1.3,1.3v.086h.087l.605,2.852,4.062,2.42h.087v.086l2.42,5.877h.086l.086,3.544v.086l-.086.086-2.075,2.852.864,4.495h0l.519,2.679v.173l-2.507,3.025.692,1.729,4.408,2.852.087.086v.086l-.605,4.408h0l-.259,2.247,1.642,2.42,3.371-.691,1.124-2.161.087-.173.173.086,2.679,1.124h1.9l.951-.778h.173l1.642.346,1.815-1.037.864-.864v-.086h.173l3.111.086.605-1.729.173-.259.173.173L277.071,253l3.889,1.642,1.988.432.086.086.086.086,2.42,5.445h0l3.284,6.483,6.915,5.1,3.8-2.161.432-2.334v-.086h.086l2.334-1.469v-.086h.087l2.766.346,2.334-7.52v-.086l.087-.086,3.284-2.506.086-.086.173.086,3.544,1.037h.086l4.754,3.2,7.26.086h.086l.086.086,5.1,3.717,6.05-3.544.173-.086.086.086,3.112,2.247,3.63-.432,3.889-1.642.692-1.815-4.408-2.593-.086-.086v-5.618l-2.679-2.679-1.383-.086h-.173v-.086l-2.766-3.976-3.544.086h-.173l-3.371-3.284-3.8,2.852H327.2l-4.84-.432h0l-.086-.086-4.667-2.852h-.086v-.086l-2.593-4.322-7.088-3.025-.086-.086h0l-5.1-4.667H296.6v-.173l.086-3.8-1.383-1.815-.086-.086v-.086l-.173-5.445-2.593-3.2-8.557-.519h-.086l-1.383-1.3h-.086V211.6l-.086-3.544-3.457-2.679-7.606-.519-.086-.087-.087-.086-2.074-4.408v-.086l.086-.086,3.025-4.322Z" transform="translate(208.761 2479.616)" fill="#fff" stroke="#f5f5f5" stroke-width="2" fill-rule="evenodd"/>
    <path id="Path_181" data-name="Path 181" d="M105.211,133.9l-1.037.778-.605,1.642.173,5.272v.173l-.173.086-3.889,1.21-.259,1.815v.173h-.173l-1.3.173-.346,1.3h0l-.086.086-.519.519,1.3,1.383,2.507,1.815,4.84,1.21.086.086h0l1.642,1.469,4.754.346.346-1.729v-.086h0l.951-.691.173-.086.086.086,2.161,1.556h.086v.086l.519,1.988,2.593,2.161,2.247-.173h.086l.086.086,3.457,3.112.173-1.642-.605-1.988-1.556-1.729-.086-.086.086-.173,1.469-2.334-.259-2.593-1.383-2.766h-.086l.086-.086.346-1.9-1.383-.173-.086-.086-.086-.086-.259-1.3-2.42-.086h-.086l-.086-.086-.691-1.3-.086-.086.086-.086.605-1.124-.173-1.556-1.815-.605-.519.778-.086.086-.173-.086-1.21-.086h-.086l-.086-.086-1.21-1.124-2.074.259H111v-.086l-1.21-2.074-1.3-.605-2.334,1.124-.259.086-.086-.173Z" transform="translate(228.76 2487.133)" fill="#fff" stroke="#f5f5f5" stroke-width="2" fill-rule="evenodd"/>
    <path id="Path_182" data-name="Path 182" d="M133.723,165.8l4.581,2.939,1.815-.086h.086l.086.086,2.161,2.679.086.086-.086.086-1.037,3.8,2.766,2.679,7.52.346h.087l4.927,3.025h.086v.086L160,187.5l5.272,3.025,3.544-.864.086-.086.086.086,1.556,1.556,2.507-2.593-2.247-2.074-.086-.086.086-.086.519-1.383.086-.173h.173l3.2.173,3.544-2.334v-2.42l-2.42-1.124-.173-.086.086-.173.778-2.074L174.346,176l-1.469.692-.173.086-.086-.173-1.815-4.494-4.322-.173h-.173l-2.766-3.2-2.593-1.642v-.086h0l-2.507-2.334h-.086l-7.347-8.384-.086-.086v-.087l.6-4.235h0V151.8l2.766-3.112-1.815-.605h-.173v-3.025h-2.161l-1.556,1.469v.086l-.086-.086-3.2-.086h0l-.086-.086-1.469-1.556h-1.383l-2.074.691L136.921,148l-2.161,4.581-.086.086h-.086l-3.63-.259-2.074,1.037L127.5,155.69l1.469,1.642.086.086h0l.6,2.074v.086h0l-.173,1.815H133.2l.086.173Z" transform="translate(224.622 2485.653)" fill="#fff" stroke="#f5f5f5" stroke-width="2" fill-rule="evenodd"/>
    <path id="Path_183" data-name="Path 183" d="M102.476,121.9l-2.161.259-3.544,2.679-1.988,2.852-3.976-.259-2.42,3.976-2.766.346-.086,3.025L81.3,137.458l.259,3.976,1.642,2.161-1.9,2.334.432,1.9,2.766.691.519,2.852-.864,1.469.259.086,1.729-.519h.086l.086.086.951.432,3.457-.605,1.383-2.161.778-3.2v-.086h0l2.161-2.161.432-1.383v-.173h.173l1.21-.086.259-1.815v-.173h.173l3.889-1.3-.173-5.1v-.086h.086l.605-1.729v-.086h.086l1.21-1.037,1.3-3.889-1.642-2.593v-.086h0Z" transform="translate(230.89 2488.761)" fill="#fff" stroke="#f5f5f5" stroke-width="2" fill-rule="evenodd"/>
    <path id="Path_184" data-name="Path 184" d="M127.217,115.5l-3.717.173-4.581,1.642-.259,3.717.432,1.729-1.3,1.124-1.037-2.593-1.815-.173-2.852-2.679-3.457,2.247-2.334.259.086,3.284,1.729,2.679v.173l-1.3,3.976.6,1.9,2.161-1.037.173-.086.086.086,1.469.691h.086v.086l1.124,1.988,1.988-.259h.086l.086.086,1.3,1.124,1.124.173.519-.778.086-.173.173.086,2.074.691.173.086v.086l.173,1.729v.086h-.086l-.519,1.124.605,1.124h2.593v.173l.346,1.3,1.383.173.259.086-.086.173-.432,2.074,1.383,2.679.086.086h0l.259,2.42L127.908,148h.086l3.544.259,2.161-4.494h0l.086-.086,3.371-2.507h.086v-.086l2.161-.691h0l3.025.086,1.556-1.3-2.939-3.716-1.815-.346h-.086l-.086-.173-.864-2.852-1.124.086-.173,1.729-.086.259h-.173l-.951-.259H135.6v-.086l-.778-1.21-.864.259-.173,2.074v.259l-.173-.086-1.3-.259h-.086l-.086-.086-.691-1.556-3.544.086h-.173v-.086l-1.469-2.161h-3.457l-.086-.086-.864-1.124-.173-.086.173-.173,5.7-6.915Z" transform="translate(227.498 2489.629)" fill="#fff" stroke="#f5f5f5" stroke-width="2" fill-rule="evenodd"/>
    <path id="Path_185" data-name="Path 185" d="M186.879,95.075l.864-5.791,1.383,1.988-.519,4.062,1.642,3.544.432,6.05,2.42,3.544.519,3.717,8.816,5.359,5.445-1.037,4.062-5.532,1.124-5.877-1.815-7,.259-10.113-1.124-3.717-2.852-4.494-.432-3.544,1.21-.778,1.729,2.334,1.642-1.124-1.556-3.025-5.964-4.062-8.557-.778-1.729,1.21-4.322,2.507.173,3.371-2.939,4.754L181,80.728l-1.9,2.42,4.235,5.618v.173l-.691,3.371,3.544,1.729h0l.087.086Z" transform="translate(217.621 2495.965)" fill="#fff" stroke="#f5f5f5" stroke-width="2" fill-rule="evenodd"/>
    <path id="Path_186" data-name="Path 186" d="M169.808,120.891l-.259-1.815.346-1.642-1.469-1.988,1.3-2.506,4.235-5.186,3.457-1.124,2.074-3.457.691-5.1L179.4,96.69l-3.544-1.815-.173-.086v-.173l.691-3.371L172.315,85.8l-4.84,6.05-2.507-.086-3.112,2.161-2.247-.173L158.658,96l-.951,1.988-1.815,1.3.951,1.9-1.21,1.3-4.149-.691-1.124,3.976-.778,5.964-2.507,1.037L136.013,111.3,131,111.47l.173,3.2,2.679-.519h.086l3.544.519h.086l.086.086,1.383,1.988h.086v.086l-.086,2.507v.086h-.086l-1.21,1.469.173,2.766h0l-.346,2.42-.086.086v.086l-1.815,1.383-.519,1.3.692,1.469.951.259.086-1.988V128.5h.173l1.21-.346.173-.086.086.173.691,1.3.605.086.173-1.642.086-.173h.173l1.469-.173h.173v.173l.951,2.939,1.729.259.086.086h.086l2.766,3.717.432-1.21-.259-3.457v-.086h0l1.3-2.507h0v-.086l4.667-4.927.086-.086h.086l2.679.605.086.086.086.086.864,1.556h0v.086l-.432,2.679v.086l-.086.086-1.988,1.9-3.371,3.8-.864,3.2h2.42v3.112l1.815.605,1.3-1.383.087-.086h1.729l.692-3.025v-.086l.086-.086,3.025-3.2-.691-1.21v-.086l-1.037-1.642v-.173l.691-2.507h0l.086-.086,3.025-3.025.259-1.556v-.259l.259.086,2.074.519,1.3.259,1.556-1.729h.086v-.086Z" transform="translate(224.147 2493.659)" fill="#fff" stroke="#f5f5f5" stroke-width="2" fill-rule="evenodd"/>
    <path id="Path_187" data-name="Path 187" d="M224.686,152.8l-4.235,5.445,1.469,2.247.086.086-.086.086-.951,1.729.691,2.852.086.173-.173.086-2.593,1.556h-.259l-3.457-2.247-3.284.173h-.173v-.173l-.519-2.42-8.3-6.4-.951,1.383,2.334,3.8v.173l-.691,3.2h0l-.086.086-1.9,1.988.864,1.556h0v.086l.173,1.642v.173l-.173.086-3.284.086-2.593,3.371-.086,1.988,3.025,1.3,1.3-1.556H201l.086-.086,2.852-.951.173-.086.086.173,1.815,3.63.086.173-.086.086-6.828,5.445-.086,2.939v.086l-.086.086-2.42,1.815-.086.086-.086-.086-2.939-1.21-2.161,1.729-6.223,7,.605,1.469v.086h0v4.667l1.037.864,2.593-2.939.086-.173.173.086,7.952,3.112,2.766-1.3,1.556-3.889.086-.086h.086l5.359.519h.086l3.889,4.408,4.322,2.247,5.964.691,2.42-1.3.086-.086.173.086,6.482,5.272,3.976.605,7.174-12.36h0l.086-.086,5.359-4.754.864-3.025h0v-.086l5.359-4.754.173-.173.173.259,1.124,1.729,2.939-.173L261.592,184l.086-.086h.086l5.359-.086,3.976-3.284h.086l7.779-.346,1.988-2.334.086-.086h.086l3.025-1.037,1.815-2.852L284.756,170v-.173l1.469-2.507-1.469-.259-1.037,1.469v.086h-1.988l-2.334,2.161-.086.086h-.086l-2.852-.691-2.161,2.507-.086.086h-.087l-6.482.519h-.086l-28-19.966-2.679.778v.086H236.7Z" transform="translate(216.807 2484.568)" fill="#fff" stroke="#f5f5f5" stroke-width="2" fill-rule="evenodd"/>
    <path id="Path_188" data-name="Path 188" d="M181.5,117.1l.864.951,1.21-.778-.346-1.383-.951-.692-.691.951Z" transform="translate(217.295 2489.67)" fill="#fff" stroke="#f5f5f5" stroke-width="2" fill-rule="evenodd"/>
    <path id="Path_189" data-name="Path 189" d="M278.559,120.4l1.383-1.037v-2.42L278.3,116.6Z" transform="translate(204.161 2489.48)" fill="#fff" stroke="#f5f5f5" stroke-width="2" fill-rule="evenodd"/>
    <path id="Path_190" data-name="Path 190" d="M293.8,154.244l-2.161-3.976-5.7-6.137H281.7l-.605,2.507-.086,3.717-3.025,1.815-1.729-.346-1.124,1.729-2.161-1.729,2.507-2.247V147.07l-8.038-.086-3.889-2.939-6.137.605-2.161-2.939,3.63-.346,1.9-3.717-4.84-1.124L253.7,139.2l-1.124-1.988L240.13,134.1l-1.556,1.642-1.815-1.729-6.482,3.8-3.457-3.284,1.037-2.852-1.037-2.939,4.062-1.383,3.716,2.593,1.815-2.939-.086-5.272L231.4,116.3l-1.469,5.272L223.1,125.98l-.519,3.371L219.3,132.29l1.3,6.828,3.544,5.272,3.284.432h.086l.086.086,1.729,2.593,12.014,1.3,2.766-.864.086-.086.086.086,28,19.966,6.223-.519,2.247-2.506.087-.086h.086l2.852.691,2.42-2.161v-.086h1.9l1.037-1.469v-.086h.173l1.729.346,1.469-2.593-1.469-2.679-.086-.173.086-.086Z" transform="translate(212.166 2489.521)" fill="#fff" stroke="#f5f5f5" stroke-width="2" fill-rule="evenodd"/>
    <path id="Path_191" data-name="Path 191" d="M293.294,145.528l-2.507.259L288.8,142.5l.519-3.025,3.2-.778.864,3.457Z" transform="translate(202.737 2486.481)" fill="#fff" stroke="#f5f5f5" stroke-width="2" fill-rule="evenodd"/>
    <path id="Path_192" data-name="Path 192" d="M249.2,128.035l1.9,2.506,4.581.173.519-1.729-.259-2.593-2.42-2.593-3.457,1.21Z" transform="translate(208.11 2488.503)" fill="#fff" stroke="#f5f5f5" stroke-width="2" fill-rule="evenodd"/>
    <path id="Path_193" data-name="Path 193" d="M287.2,126.2l1.037-10.026.778-3.8,3.284-3.544,3.976-1.383,1.642-2.247-.951-2.766,2.852,1.9,2.679-.259.691-1.988,1.642.086L305,100.18l2.074.864.432-1.988,1.556,1.642,1.21-1.556.432-2.334,2.161,1.556,1.469-1.3,3.025.605,2.507-2.852,19.274-.432,4.667-2.507.519-3.371-1.988-2.42-4.668,1.21L336.9,89.03l-7.865-.691L325.573,85.4l-3.025,1.729-3.025-1.3-3.8,2.506h-3.2l-1.556,1.3-2.161-2.247-1.037,4.667-2.42.086-.259,1.9-5.877,1.815-2.161-.951-1.3,1.642,1.729,1.642-2.42,2.247-3.8-1.556-.519,2.939-2.766-.173-.086,2.247L284,105.884l-2.333-.778-2.68,1.988-.086,2.852,2.507,2.507.087,3.889-2.334,2.334,1.815,4.062,2.161.259.086,1.9,2.42.519Z" transform="translate(204.08 2493.713)" fill="#fff" stroke="#f5f5f5" stroke-width="2" fill-rule="evenodd"/>
    <path id="Path_194" data-name="Path 194" d="M210.244,133.287l-3.371,3.112-1.556-2.939,2.247-.519-2.852-5.272-4.322.691-4.235-1.469-5.272.778-2.939,7.347-2.161-1.21-3.025-7.174.432-5.532-5.013.605-1.3,4.754,2.074,2.593-1.988,2.679-3.284-1.815-.519-3.8-.173.086-1.642,1.729-.086.086h-.086l-1.383-.259h0l-1.9-.519-.259,1.469h0v.086l-3.025,3.025-.691,2.42.951,1.556.864,1.383v.173l-.086.086-3.112,3.284-.691,3.2-.086.173h-1.9l-1.3,1.469h0l-2.939,3.284-.519,3.976,7.347,8.3,2.506,2.42,2.593,1.642h.086l2.679,3.2,4.408.086h.173v.173l1.729,4.408,1.383-.605.086-.086v.086l2.593.778.173.086-.086.173-.778,2.074,2.334,1.21h.173v2.593l2.334-.432h.173l.086.086,1.9,2.42h.086v.086l.259,2.852,1.9-1.642h.173l3.025,1.21,2.161-1.642.173-3.025v-.086l.086-.086,6.655-5.272-1.642-3.371-2.679.951-1.383,1.642-.086.086-.173-.086-3.371-1.383h-.086v-.173l.173-2.247v-.086h0l2.679-3.544v-.086h.173l3.111-.086-.173-1.469-.951-1.556-.086-.173.173-.086,1.988-2.074.691-3.112-2.334-3.8-.086-.086.086-.173,1.124-1.642.173-.173.173.173,8.47,6.482.086.086v.086l.519,2.334,3.2-.173h.086v.086l3.371,2.161,2.42-1.383-.6-2.766-.086-.086.086-.086.864-1.729-1.469-2.247-.087-.173.173-.086,4.149-5.445-1.642-2.42-3.284-.432h-.086v-.086l-3.63-5.445v-.086h-.086Z" transform="translate(220.877 2488.87)" fill="#fff" stroke="#f5f5f5" stroke-width="2" fill-rule="evenodd"/>
    <path id="Path_195" data-name="Path 195" d="M349.5,45.829l1.383,1.3,1.9-1.642-.951-1.383-1.383.346Z" transform="translate(194.501 2499.316)" fill="#fff" stroke="#f5f5f5" stroke-width="2" fill-rule="evenodd"/>
    <path id="Path_196" data-name="Path 196" d="M353,46.993l1.037.951,1.9-1.037.519-2.161-1.469-.346Z" transform="translate(194.026 2499.276)" fill="#fff" stroke="#f5f5f5" stroke-width="2" fill-rule="evenodd"/>
    <path id="Path_197" data-name="Path 197" d="M358.8,46.584l1.815,1.729,3.716-1.9-.691-2.074L361.047,43.3l-2.161,1.815Z" transform="translate(193.239 2499.425)" fill="#fff" stroke="#f5f5f5" stroke-width="2" fill-rule="evenodd"/>
    <path id="Path_198" data-name="Path 198" d="M363.3,42.342l1.642.778,1.037-1.21-1.3-1.21Z" transform="translate(192.629 2499.778)" fill="#fff" stroke="#f5f5f5" stroke-width="2" fill-rule="evenodd"/>
    <path id="Path_199" data-name="Path 199" d="M371.3,37.351l.519,1.642,1.642-.605-.6-1.988Z" transform="translate(191.543 2500.362)" fill="#fff" stroke="#f5f5f5" stroke-width="2" fill-rule="evenodd"/>
    <path id="Path_200" data-name="Path 200" d="M365.219,32.529l.864.778,1.124-.864L365.564,30.8l-.864.691Z" transform="translate(192.439 2501.121)" fill="#fff" stroke="#f5f5f5" stroke-width="2" fill-rule="evenodd"/>
    <path id="Path_201" data-name="Path 201" d="M359.8,33.837l.259,1.3,1.729,1.124,1.037-1.556-.951-1.9Z" transform="translate(193.103 2500.85)" fill="#fff" stroke="#f5f5f5" stroke-width="2" fill-rule="evenodd"/>
    <path id="Path_202" data-name="Path 202" d="M355.393,35.6l3.371,2.939-.432,2.593-3.371-1.124L352.8,37.415Z" transform="translate(194.053 2500.47)" fill="#fff" stroke="#f5f5f5" stroke-width="2" fill-rule="evenodd"/>
    <path id="Path_203" data-name="Path 203" d="M366.6,46.193l.432,1.988,3.63-.086,1.556-2.507-1.3-1.988-1.556,2.247-2.334-.605Z" transform="translate(192.181 2499.385)" fill="#fff" stroke="#f5f5f5" stroke-width="2" fill-rule="evenodd"/>
    <path id="Path_204" data-name="Path 204" d="M354.9,51.51l.951,1.383.951-1.124-.951-1.469Z" transform="translate(193.768 2498.476)" fill="#fff" stroke="#f5f5f5" stroke-width="2" fill-rule="evenodd"/>
    <path id="Path_205" data-name="Path 205" d="M344.4,40.4l1.469,2.507,1.729-1.642-.864-2.161Z" transform="translate(195.193 2499.995)" fill="#fff" stroke="#f5f5f5" stroke-width="2" fill-rule="evenodd"/>
    <path id="Path_206" data-name="Path 206" d="M349.4,39.464l.346,1.556.951-.691-.778-1.729Z" transform="translate(194.514 2500.063)" fill="#fff" stroke="#f5f5f5" stroke-width="2" fill-rule="evenodd"/>
    <path id="Path_207" data-name="Path 207" d="M347.5,29.837l1.21,1.556,1.037-1.037L347.932,28.8Z" transform="translate(194.772 2501.393)" fill="#fff" stroke="#f5f5f5" stroke-width="2" fill-rule="evenodd"/>
    <path id="Path_208" data-name="Path 208" d="M335.6,26.4l.518,2.074,1.556,1.21,2.334-.173,1.383,1.124.864-1.037-1.729-1.556-1.642.519Z" transform="translate(196.387 2501.718)" fill="#fff" stroke="#f5f5f5" stroke-width="2" fill-rule="evenodd"/>
    <path id="Path_209" data-name="Path 209" d="M336.073,32.4l-.173,1.815,1.642,1.642,1.642,2.074.519-.951-.432-1.988,2.334-.519,2.852.951,1.815-1.815-1.642-1.988-1.383-.519-1.469,1.124-2.074.346-1.21.519Z" transform="translate(196.346 2501.08)" fill="#fff" stroke="#f5f5f5" stroke-width="2" fill-rule="evenodd"/>
    <path id="Path_210" data-name="Path 210" d="M340.146,40.6l-.346,1.21,1.383.778.087-1.642Z" transform="translate(195.817 2499.792)" fill="#fff" stroke="#f5f5f5" stroke-width="2" fill-rule="evenodd"/>
    <path id="Path_211" data-name="Path 211" d="M39.9,103.71l7.606,16.509,4.754-2.507.432-9.075-2.247-3.457-1.037,4.062-2.247-1.383-1.9-5.359-2.247,1.383Z" transform="translate(236.508 2491.393)" fill="#fff" stroke="#f5f5f5" stroke-width="2" fill-rule="evenodd"/>
    <path id="Path_212" data-name="Path 212" d="M67.033,244.2v1.124l-3.544-.086-1.3,1.988-1.815.259-2.161,3.8-3.63,1.383-2.593-3.8-6.05-.778-2.852,2.939,6.137,3.544-1.815,1.3-3.2-1.9L42.4,255.35l1.124,2.161h2.334v.086l2.679,3.284.086.086-.086.086-1.9,3.8,2.507,3.2.086.086v.173l-.605,1.21-.173,2.507,1.469,1.9,1.469-1.642.086-.086h.086l2.334.864.864-1.383.086-.173.173.086,1.9.778.173.086V275.4l2.161,1.037.173.087v2.852l1.124,1.9,2.766-.259.864-1.642.086-.086h4.581l2.679-3.025-.173-1.469-2.507-.259h-.173v-.259l-.086-2.074-2.334-3.284-.086-.087v-.086l1.3-4.408L65.91,262l-.086-.173.173-.086,3.284-1.9.173-.086.086.173,1.21,1.124L73,260.968l1.383-2.679-.519-4.495v-.086l.086-.086,3.544-2.334-.605-5.445-2.766-.173-1.988,1.383-.086.086-.086-.086-2.247-1.383Z" transform="translate(236.168 2472.167)" fill="#fff" stroke="#f5f5f5" stroke-width="2" fill-rule="evenodd"/>
    <path id="Path_213" data-name="Path 213" d="M94.4,277.215l3.8-1.3.605-2.939,3.2-1.815,3.544-.864,1.21-.346-.086-4.84-2.161-.432h-.086V264.6l-1.037-1.469-.086-.086v-.086l-.086-2.766-1.3.605h-.086l-1.642-.173h-.259l.086-.173.086-2.074v-.086l.086-.086,1.642-1.9v-2.593l-3.717-3.544-2.161-.519H95.87L94.4,247.655l-.086-.086h0l-.173-2.766-3.112-1.124h-.086l-.086-.086L89.561,241l-1.642.519h-.086l-3.284-.432-.346,2.161v.087l-.086.086-3.025,1.9.605,5.618v.173l-.086.086-3.544,2.247.432,4.408.086.086H78.5l-1.383,2.852-.086.086h-.086l-2.507.173h-.173l-1.124-1.21L70.2,261.571l1.383,2.161.086.086v.086l-1.3,4.408,2.247,3.2,5.532.605.605-1.642.086-.086h.086l1.9.173H81v.173l.605,2.766,2.161.346,1.9-1.21.086-.087.086.087,6.655,1.383h.086l.086.087Z" transform="translate(232.396 2472.602)" fill="#fff" stroke="#f5f5f5" stroke-width="2" fill-rule="evenodd"/>
    <path id="Path_214" data-name="Path 214" d="M78.834,307.992l3.544,1.3,9.421-.259-.778-3.717,2.42-.432,1.815-10.113-1.642-2.161L91.28,292l.346-1.9,2.939-2.679-2.593-3.63,1.21-.691,1.642-.692-1.642-3.025L86.7,278l-1.815,1.124,1.21,3.112.086.086-.086.086-1.21,5.877,1.556,2.766v.173l-1.556,4.408.6,2.766.086.346-.346-.086-2.766-.259L81.081,299l-.173.086-.086-.173-1.037-1.469-.864,1.037,1.469,3.457v.173l-.086.086-1.988,1.642h0l-1.815.951Z" transform="translate(231.542 2467.581)" fill="#fff" stroke="#f5f5f5" stroke-width="2" fill-rule="evenodd"/>
    <path id="Path_215" data-name="Path 215" d="M68.008,309.122l3.544.086,3.371-1.556-2.247-3.2-.173-.173.259-.086,1.9-1.037,1.815-1.47L75.1,298.231l-.086-.086.086-.173,1.124-1.383.173-.173.173.259,1.124,1.556,1.3-.6h.086l2.593.259-.605-2.507v-.086h0l1.556-4.494-1.556-2.766v-.086h0l1.21-5.964-1.124-3.112-2.247-.259h-.173v-.173l-.605-2.852-1.556-.086-.605,1.556v.173h-.173l-5.532-.6.086,1.729,2.507.346h.173v.173l.173,1.728v.086h-.086l-2.766,3.2-.086.086H65.761l-.951,1.556v.086l-.086.086-3.025.259h-.086l-.086-.086-1.3-2.074h0v-2.766l-2.247-1.037-.086-.086v-2.939l-1.642-.691-.778,1.469-.086.087h-.173l-2.42-.951-1.3,1.556,1.469,1.9,1.642-.259H54.7l.086.086,1.037,1.469,2.161.605.086.086.086.086.864,2.507,2.247,3.717v.173l-.605,3.63L63,296.589v.086h0l.778,3.285h0v.086l-.173,3.371,3.544,3.544h.086Z" transform="translate(234.934 2467.921)" fill="#fff" stroke="#f5f5f5" stroke-width="2" fill-rule="evenodd"/>
    <path id="Path_216" data-name="Path 216" d="M45.21,325.227,44,326.437l.259,3.371,3.112,4.581-.259,4.754-.519,2.247,2.852,3.457,1.3-.519.778-1.383,1.729.864,1.815.6,2.161-1.383v-5.964l1.469-8.47,5.359-5.186.519-5.445-.605-2.334,2.593-1.988-.778-1.988L62.41,308.2l-1.3.951-.086.086h-.086l-3.63-.173-1.988,1.556L56.014,312l.086.173-.173.173-1.815,1.037,2.247,3.285,2.507.432h.086v.173l.864,2.939v.173l-.173.086-1.9.778h-.086l-1.9-.086-2.42,4.667-.086.259-.259-.173-1.9-1.556-1.037,1.21-.086.086h-.086Z" transform="translate(235.951 2463.484)" fill="#fff" stroke="#f5f5f5" stroke-width="2" fill-rule="evenodd"/>
    <path id="Path_217" data-name="Path 217" d="M44.2,321.616l.864,2.161.346,1.728,4.408.346,1.124-1.3.173-.173.173.086,1.815,1.556,2.42-4.581v-.086H55.7l1.988.086,1.642-.691-.691-2.679L56.3,317.64h-.086l-.086-.086-3.2-4.581-2.507-.173-1.21.518L50.6,318.5v.173l-.173.086Z" transform="translate(235.924 2462.859)" fill="#fff" stroke="#f5f5f5" stroke-width="2" fill-rule="evenodd"/>
    <path id="Path_218" data-name="Path 218" d="M42.5,319.564l.086.951,1.124.951,6.137-2.939-1.3-4.927-1.124.519-1.037,3.371v.086H46.3l-1.556,1.3h-.086Z" transform="translate(236.155 2462.751)" fill="#fff" stroke="#f5f5f5" stroke-width="2" fill-rule="evenodd"/>
    <path id="Path_219" data-name="Path 219" d="M37,312.083l.173,3.889,4.494,2.161.086.605,2.074-.691,1.469-1.124,1.037-3.371v-.086l.086-.086,2.593-1.124L47.026,310.7l-.778,1.3-.086.086h-.086l-5.186-1.3-3.8,1.3Z" transform="translate(236.901 2463.145)" fill="#fff" stroke="#f5f5f5" stroke-width="2" fill-rule="evenodd"/>
    <path id="Path_220" data-name="Path 220" d="M33.2,302.974l2.334,2.679.086,3.544.778,1.124h0l3.976-1.3h.086l5.013,1.3,1.556-2.766-.691-2.334H43.831l-4.581-4.235-3.371-.086Z" transform="translate(237.417 2464.474)" fill="#fff" stroke="#f5f5f5" stroke-width="2" fill-rule="evenodd"/>
    <path id="Path_221" data-name="Path 221" d="M26.4,290.515l2.766,4.667v2.766l2.766,3.112,2.852-2.247h.173l3.2.087-.173-3.371v-.087l.086-.086,1.729-1.124-2.42-4.667-.864,1.642-.086.173H36.34l-3.025-.346h-.086v-.086L31.586,288.7Z" transform="translate(238.339 2466.129)" fill="#fff" stroke="#f5f5f5" stroke-width="2" fill-rule="evenodd"/>
    <path id="Path_222" data-name="Path 222" d="M20.251,255.971l.259,3.976-1.21,1.469.605,1.729,1.815,1.383-.086,2.852,1.037,4.494-.346,4.149-.778,6.915.864,1.21,1.815-.778,1.21,1.988,5.359-1.9.173-.086.086.086L32.7,285.7l2.766.259,1.988-3.976V281.9h.086l2.074-.864-.778-1.21-.086-.086.086-.086,1.21-2.161-1.3-1.124-.173-.173.173-.173,1.556-1.556.173-1.3v-.086l.086-.086,1.729-.778.173-.087.086.173,1.124,1.988,1.469-1.21.173-2.593h0l.605-1.124-2.593-3.2-.086-.086.086-.087,1.988-3.8-2.507-3.112h-2.42L40.3,259l-1.383-2.679L34.771,252.6l-.605,5.445-2.247-1.124-4.322.259-1.556,2.074-3.2-5.272-2.593,1.988Zm4.235,24.806-.173-2.679h0v-.346h.346l2.766-.259V275.85h0v-.173l.086-.087.086-.086h0l3.112-2.334-1.988-1.21h0l-2.507-2.939h0l-.086-.086-.086-.086v-.173l.346-2.334h0v-.519l.259.086.259.086,2.161.778h.173v.173h0l1.729,2.766h2.939v.346l.173,2.507,1.729,1.469.086.086.086.086v.173l-.173,3.457v.346L33.3,281.468l-.346.432-.346.432-.086-.519-.086-.519-.346-2.852L28.2,282.765l-.086.086-.086.086-.173-.086-.173-.086-2.939-1.383-.086-.087-.086-.086v-.087l-.086-.346Z" transform="translate(239.303 2471.028)" fill="#fff" stroke="#f5f5f5" stroke-width="2" fill-rule="evenodd"/>
    <path id="Path_223" data-name="Path 223" d="M47.784,276.678l-1.556,1.3-.173.173-.173-.259L44.759,275.9l-1.469.691-.086,1.3h0l-.086.086-1.383,1.383,1.21,1.124.086.086v.173l-1.21,2.247.864,1.3.086.259-.173.086-2.334.864-.864,1.9,2.679,5.1.086.173-.173.086-1.815,1.124.173,3.457,4.581,4.062h2.593v.173l.778,2.507.086.087-.086.086-.778,1.3,2.247,1.815,2.593.173h.086l.086.086.778,1.037,1.556-.951-.691-1.383v-.173l.086-.086,2.161-1.729.086-.086H56.6l3.717.173,1.21-1.037L61.7,300.1l-.778-3.2-2.334-4.235V292.5l.605-3.63-2.161-3.717h0v-.086l-.951-2.334-2.074-.605-.086-.086h0l-1.037-1.469-1.556.259-.173.086-.086-.173Z" transform="translate(236.575 2467.866)" fill="#fff" stroke="#f5f5f5" stroke-width="2" fill-rule="evenodd"/>
    <path id="Path_224" data-name="Path 224" d="M25.6,280.228l.173,2.679,2.939,1.383,4.235-4.667.346-.346v.432l.432,3.371,2.507-3.284.173-3.457-1.815-1.556H34.5V274.7L34.33,272.1H31.65v-.086l-1.815-2.939-2.247-.778h0l-.259,2.42h0l2.507,2.939h0l2.247,1.383.259.173-.259.173-3.371,2.506h0v2.074h-.173Z" transform="translate(238.448 2468.897)" fill="#fff" stroke="#f5f5f5" stroke-width="2" fill-rule="evenodd"/>
    <path id="Path_225" data-name="Path 225" d="M432.869,368.632l9.594,3.89,8.816,1.988,1.815,7,6.4,3.371,4.494-.086,6.482-3.8,4.927,1.556,5.186-.346,1.383,2.334,2.939.173,1.037-3.63v-.087l.086-.086,2.852-1.469-3.025-3.371-.173-.173.173-.086,2.939-2.42-1.124-3.457-.086-.259h5.964l3.544-2.939h.173l3.112.432,5.877-7.779V359.3h.086l3.8-.259,1.124-1.815v-.086h.086l3.2-1.3,2.42-3.025.259-3.2-2.506-1.728-.086-.086v-3.284l.086-.086,5.532-4.235,1.9-4.408V335.7h.087l4.927-1.729-.259-3.889-3.025-2.766-3.371-.519-.086-.086-.086-.086-2.766-8.384-1.729-1.556-.173-.173.173-.173,1.729-2.42-.259-2.42-2.074,2.334-.087.086h-.086l-1.729-.259-.951,3.8-.087.086h-.086l-9.335,2.593h-.173l-.087-.086-1.556-2.161H498.9l-2.075-1.124-1.037,2.593-.086.086-.086.086-4.408,1.469h-.173l-2.247-.865-.519,2.593-.086.173H488.1l-4.581.605.432,2.161,2.766,2.334.173.173-.173.173-2.334,2.766-.432,4.149,1.556,3.544.173-.778.951-5.7h0v-.086l1.556-2.593v-.173h.173l1.988.259h.086l.086.173.346,2.161v.087h0l-.951,5.186.346,5.013.778,2.766h.087l-.087.086L490,347.888h0v.086l-1.642,1.469-.519.951.6,1.729v.173l-.691,1.729-.086.086h-.086l-1.729.432-.086,1.9v.086h0l-2.247,3.63h0l-.087.086-3.284.951-2.161,2.939-.086.086h-.086l-2.42-.173-.691,3.717v.086h0l-1.9,2.074v.086h-.086l-5.878,2.593-.778,2.679v.087l-.173.086-3.8,1.21-.173.087-.086-.259-.519-2.161-3.976-.778h-.173v-.173l-.346-2.939-2.766-3.544h-3.8l-.087-.087-7.693-6.05h0v-.086l-2.42-3.284-3.89,2.766-.086.086h-.087l-2.161-.086.086.519.086.086-.086.086-1.21,1.21.432,1.729v.087l-.086.086-1.642,1.815Z" transform="translate(183.389 2463.036)" fill="#fff" stroke="#f5f5f5" stroke-width="2" fill-rule="evenodd"/>
    <path id="Path_226" data-name="Path 226" d="M369.7,391.588l14.52-5.445,5.186-.346.864,1.3,7.779,1.729.6,3.457,2.939,1.469,8.211.951,3.284.432,1.642,1.556,2.593-.864,2.42-2.074,1.642-4.149-2.766-3.371.346-5.186,1.815-.605.086-2.334,2.334-.086.692-2.593-1.556-2.939V372.4l.086-.173,1.642-1.815-.432-1.729-.087-.173.087-.086,1.21-1.21-.259-1.21-3.371.259h-.173l-8.47-5.964-.519,2.334v.173h-.173l-10.372.951-.6,2.679-.086.173h-.086l-1.988.518.173,1.9v.086l-.086.086-2.766,1.815-.173,1.815v.173l-.173.086-1.9.432-3.371,2.852h-.173l-7.952-1.037h-.086l-4.927-3.457-2.247-.173-1.383,3.8-.086.173h-.173l-5.618.346.346,3.889,3.371,6.05.086.173-.086.086-2.42,1.642Z" transform="translate(192.018 2456.414)" fill="#fff" stroke="#f5f5f5" stroke-width="2" fill-rule="evenodd"/>
    <path id="Path_227" data-name="Path 227" d="M333.7,374.964l.432,3.889,3.63,2.074.086,3.8,3.63.778,1.469,1.815,4.062-2.161.778,2.852,2.593,3.8,4.062.432,1.21-2.679,5.445-.259,3.63-2.679-.605-3.976v-.086l.086-.087,2.334-1.556-3.284-5.877h0v-.086l-.346-3.8-2.939,2.247-.173.087-.086-.173-2.679-3.371-.086-.086v-.086l.951-4.062-1.469-1.729-4.494-.173v.086h-.173l-2.852.605h-.087l-.173-.086-2.334-1.815-.173,1.9v.173L343.9,368.05l-.086.086h-.086l-4.149-.346-3.284,1.124-1.3,1.815,2.074,1.037h.087v.087l.6,2.42.086.259h-.259l-3.889.432Zm24.374-9.594,2.507-.864,1.815-.951,3.112-3.112-.692-1.988v-.173l.519-2.247-.778-2.939v-.086l.087-.086,2.074-2.593,1.037-3.2-3.025-1.037h-.086v-.086l-.605-1.9v-.087l.086-.086,2.42-3.111-1.3-3.112v-.173l.605-2.42v-.086l.086-.086,3.2-1.469,1.556-1.556-3.371-6.482v-.173l.519-2.247-3.63,1.556h-.173L359.37,322.5l-5.359.778-1.988,2.42-.086.086h-5.618l-.087,14.78,1.988-.259h.173v.173l.346,2.939,2.766,2.939h0l.951,2.593,2.593,1.815.173.173-.173.173-1.988,2.334,1.556,1.729.086.086v.086l-.778,3.025v.086l-.086.087-1.988,1.3-.173,3.544,4.581.173h.086l.086.086,1.642,1.729Z" transform="translate(196.645 2461.543)" fill="#fff" stroke="#f5f5f5" stroke-width="2" fill-rule="evenodd"/>
    <path id="Path_228" data-name="Path 228" d="M300.7,343.8l5.445,26.1,2.939-.432,2.074-2.939,1.9.778.519,3.025,6.223,3.457,4.84-1.815,2.593,1.124,1.9,3.8,3.544-.432-.519-2.074L330,373.276l-.173-.086.087-.259,1.556-2.074h.087l3.371-1.21h.086l4.062.432,2.161-3.284.173-2.247.086-.346.259.259,2.593,1.988,2.593-.519.173-3.8v-.086l.087-.087,1.988-1.3.778-2.852-1.642-1.815-.173-.086.173-.173,1.9-2.247-2.42-1.815h-.086v-.086l-.951-2.593-2.852-3.025h0v-.086l-.346-2.852-1.988.259-2.506,2.334-.087.086H338.9l-4.84-.519-1.469,1.124-.173.086-.086-.086-1.47-1.124-4.235,4.062-.173.173-.086-.173L323,346.05h0v-.086l-.605-2.42L319.715,340l-11.15,3.8h-.086l-2.42-1.037-1.037.778-.173.086-.087-.086-1.729-1.124Z" transform="translate(201.122 2459.169)" fill="#fff" stroke="#f5f5f5" stroke-width="2" fill-rule="evenodd"/>
    <path id="Path_229" data-name="Path 229" d="M290.9,327.43l5.791.173-2.334,2.507,4.84,8.038,2.334-1.383.173-.086.086.086,1.729,1.124,1.124-.778.087-.086.086.086,2.42,1.037,11.15-3.889h.173l.087.087,2.766,3.8h.086v.086l.518,2.334,3.112,3.025,4.235-4.062.086-.173.173.173,1.469,1.124,1.469-1.037v-.086h.086l4.84.518,2.507-2.247.086-14.953h-1.988l-2.679,2.334-.173.086-.173-.173-1.21-1.469v-.173l.346-5.618-8.125-.259h-.086l-.087-.087-1.469-2.766-4.235.173h-.173v-.173l-.864-3.025-2.593-3.457L302.309,301.5v4.754h-.086l-2.679,1.556.778,3.025.086.259h-.259l-3.457-.173-2.766,1.124-1.556,2.766.346,8.211h0v.087Z" transform="translate(202.452 2464.393)" fill="#fff" stroke="#f5f5f5" stroke-width="2" fill-rule="evenodd"/>
    <path id="Path_230" data-name="Path 230" d="M265.278,305.448l1.642.432.173,2.939-1.037,1.124.691,2.074L264.5,314.61l.432,1.9,4.84,1.124.259,2.593,2.334.173,1.815.432L276,322.821l-2.593,2.161V326.8l2.593-.778,2.247,1.21,1.988-.432,1.729-1.469,4.84-.864,1.9-4.581-.346-8.125v-.086l.086-.086,1.642-2.939h0l.087-.086,2.766-1.124h.087l3.284.173-.778-2.852v-.173l.086-.086,2.766-1.556V291.533l-1.988-2.074-.086-.173.086-.086,2.075-2.507-.173-1.556-3.8,2.593h-.173l-2.939-.086h-.087L288.442,286l-3.112.432-.086.086-.086-.086-4.062-2.939-1.815-.346h-.346l.173-.259,1.383-1.9L278.5,279l-3.8,3.716-.346,3.457v.086h0l-1.124,1.3.259,1.124,2.42.864.086.086v.086l.778,2.247h.086v.086l-.519,2.074v.087h0l-.864,1.3-.087.173-.086-.086-2.852-.519-2.075,2.334-.6,2.593v.086l-.086.086-3.717,3.457Z" transform="translate(206.034 2467.446)" fill="#fff" stroke="#f5f5f5" stroke-width="2" fill-rule="evenodd"/>
    <path id="Path_231" data-name="Path 231" d="M349.178,274.042l-3.112-2.161-6.05,3.544h-.259l-5.1-3.8-7.347-.086h-.086v-.086l-4.84-3.2-3.457-.951-3.2,2.42-2.334,7.606-.087.173h-.173l-2.852-.346-2.161,1.383-.432,2.334v.086l-.086.086-3.889,2.247.259,1.815v.086l-.087.086L301.9,287.7l1.9,1.988v6.742l14.434,6.828h.087v.086l2.766,3.457v.086h0l.778,2.939,4.149-.173h.173l.086.173,1.469,2.679,8.211.259h.173v.173l-.346,5.791.951,1.3,2.679-2.161.086-.086h7.865l2.074-2.334v-.086h.086l5.532-.778h.087l4.667,2.074,3.717-1.642.173-3.8v-.086l.087-.086,3.976-2.939.432-1.815-3.371-1.124h-.087l-2.42-2.507h-.086v-.086l-.432-3.284v-.086l.086-.086,4.322-3.717.173-2.161-2.852-.346h-.086l-.087-.087-3.111-6.569-10.89-1.642-.173-.086v-3.284h0l1.469-1.815Z" transform="translate(200.959 2469.033)" fill="#fff" stroke="#f5f5f5" stroke-width="2" fill-rule="evenodd"/>
    <path id="Path_232" data-name="Path 232" d="M371.2,336.6l-1.3.605-.605,2.334,1.383,3.111v.173l-.086.086-2.42,3.112.518,1.642,3.112,1.124.259.087-.086.173-1.124,3.457h-.086l-1.988,2.593.691,2.939h.086l-.086.086-.519,2.247.778,1.988v.087l-.087.086-3.2,3.284h-.086l-1.9.951h0l-2.507.951L361,371.6l2.507,3.2,3.025-2.333.346-.259v.173l5.532-.346,1.469-3.8v-.173h.173l2.334.173,1.642-3.457v-.087h.086l2.939-1.123.951-1.988v-2.334h.087l2.679-1.469-.173-2.334-1.124-3.371h0l-.519-3.2-2.507-3.716V344.9l1.037-2.247-1.815-1.21-3.111.346h-3.63V341.7Z" transform="translate(192.941 2459.631)" fill="#fff" stroke="#f5f5f5" stroke-width="2" fill-rule="evenodd"/>
    <path id="Path_233" data-name="Path 233" d="M366.8,142.547l1.9,2.507,1.383-.605-.432-3.457-1.383-.691Z" transform="translate(192.154 2486.264)" fill="#fff" stroke="#f5f5f5" stroke-width="2" fill-rule="evenodd"/>
    <path id="Path_234" data-name="Path 234" d="M373,124.256l.951,1.3,1.037-1.124-.432-1.729-1.3.432Z" transform="translate(191.312 2488.652)" fill="#fff" stroke="#f5f5f5" stroke-width="2" fill-rule="evenodd"/>
    <path id="Path_235" data-name="Path 235" d="M415.5,52.82l4.235.778-.951-3.2-2.939.086Z" transform="translate(185.546 2498.462)" fill="#fff" stroke="#f5f5f5" stroke-width="2" fill-rule="evenodd"/>
    <path id="Path_236" data-name="Path 236" d="M419.6,60.894l2.333-3.112-.518-2.766,2.247-1.469L425.91,51.3l2.506,2.247,1.383,3.976.864,1.815-2.334,1.21V62.8l-5.791,2.593L419.6,62.709Z" transform="translate(184.99 2498.34)" fill="#fff" stroke="#f5f5f5" stroke-width="2" fill-rule="evenodd"/>
    <path id="Path_237" data-name="Path 237" d="M416.929,66.3l4.408,1.729-.605,2.074-2.074,1.124-2.939-1.988-.519-1.988Z" transform="translate(185.587 2496.304)" fill="#fff" stroke="#f5f5f5" stroke-width="2" fill-rule="evenodd"/>
    <path id="Path_238" data-name="Path 238" d="M421.7,73.32l1.988-4.84,5.445-2.679.951,3.717,1.469-.432.173-1.642,2.42,2.42-.173,3.2L432.158,76l1.556,1.815-.432,2.766-1.988,1.037-3.976-2.766-3.63-3.112-1.988-.864Z" transform="translate(184.705 2496.372)" fill="#fff" stroke="#f5f5f5" stroke-width="2" fill-rule="evenodd"/>
    <path id="Path_239" data-name="Path 239" d="M437.652,77.4l-.519,6.31L434.8,88.033l.864,3.371,3.976-3.2,4.149-.259L445.95,85.7l.259-5.013-2.334-2.939-1.9,1.9-1.124-1.124.173-3.025Z" transform="translate(182.928 2495.056)" fill="#fff" stroke="#f5f5f5" stroke-width="2" fill-rule="evenodd"/>
    <path id="Path_240" data-name="Path 240" d="M451.5,88.091l.346,1.729,3.112.691-.086-1.21-3.112-1.9Z" transform="translate(180.662 2493.441)" fill="#fff" stroke="#f5f5f5" stroke-width="2" fill-rule="evenodd"/>
    <path id="Path_241" data-name="Path 241" d="M424.3,102.7l1.642,1.21,1.21-.691-.864-1.815Z" transform="translate(184.352 2491.542)" fill="#fff" stroke="#f5f5f5" stroke-width="2" fill-rule="evenodd"/>
    <path id="Path_242" data-name="Path 242" d="M407.786,99.888l2.074,1.124.086-1.642-1.3-1.469-.951.778Z" transform="translate(186.604 2492.017)" fill="#fff" stroke="#f5f5f5" stroke-width="2" fill-rule="evenodd"/>
    <path id="Path_243" data-name="Path 243" d="M422.4,107.81l.778.864.951-.951-1.124-1.124Z" transform="translate(184.61 2490.836)" fill="#fff" stroke="#f5f5f5" stroke-width="2" fill-rule="evenodd"/>
    <path id="Path_244" data-name="Path 244" d="M382.6,132.356l1.556,1.469,1.037-1.037-.346-1.642-1.383-.346Z" transform="translate(190.01 2487.553)" fill="#fff" stroke="#f5f5f5" stroke-width="2" fill-rule="evenodd"/>
    <path id="Path_245" data-name="Path 245" d="M387,134.542l.864.6.605-1.124-1.037-1.124Z" transform="translate(189.413 2487.268)" fill="#fff" stroke="#f5f5f5" stroke-width="2" fill-rule="evenodd"/>
    <path id="Path_246" data-name="Path 246" d="M389.6,129.61l.864.605.519-.951-1.3-.864Z" transform="translate(189.06 2487.879)" fill="#fff" stroke="#f5f5f5" stroke-width="2" fill-rule="evenodd"/>
    <path id="Path_247" data-name="Path 247" d="M391.346,126.842l1.037.778.951-1.3-1.556-1.124-.778.6Z" transform="translate(188.87 2488.313)" fill="#fff" stroke="#f5f5f5" stroke-width="2" fill-rule="evenodd"/>
    <path id="Path_248" data-name="Path 248" d="M383.151,117.534l1.124.691,1.642-.951-.951-1.642-1.383-.432-1.383,1.21Z" transform="translate(190.064 2489.67)" fill="#fff" stroke="#f5f5f5" stroke-width="2" fill-rule="evenodd"/>
    <path id="Path_249" data-name="Path 249" d="M387.246,111.3l-.346.951.864,1.21.864-.951.087-1.124Z" transform="translate(189.427 2490.199)" fill="#fff" stroke="#f5f5f5" stroke-width="2" fill-rule="evenodd"/>
    <path id="Path_250" data-name="Path 250" d="M384.259,64.791l-.259,1.3,1.383,1.383,1.9.086-.086-1.729L385.9,64.1Z" transform="translate(189.82 2496.603)" fill="#fff" stroke="#f5f5f5" stroke-width="2" fill-rule="evenodd"/>
    <path id="Path_251" data-name="Path 251" d="M394.086,52.43l1.815.605,1.988-.519-1.124-2.593L395.3,48.8l-1.037.951L394,51.393Z" transform="translate(188.463 2498.679)" fill="#fff" stroke="#f5f5f5" stroke-width="2" fill-rule="evenodd"/>
    <path id="Path_252" data-name="Path 252" d="M469.631,244.5l-1.383,1.556-.087.086h-.086l-3.285.691-2.939,1.3.173,3.284.864,2.161v.173l-1.642,3.717,1.642,2.679v.173l.346,3.976v.173l-2.593,5.013v.086h-.087l-4.321,2.679,1.642,2.766.086.086-.086.086-1.815,2.507.951,3.2,3.63,1.21h.086v.086l.519,2.42v.086l-.087.087-2.68,2.852-.173,1.988,1.729.432h.086v.086l.864,2.593v.086l-.087.086-1.988,1.988-.864,3.025-.087.259L457.7,298l-3.8-2.247h-.087v-.086L452,291.778l-3.457,1.556-.518,3.284v.086l-.086.086-7.692,8.384.346,3.89v.173l-.173.086-2.074.864-.173.086-.087-.173-2.939-6.4-1.988,2.679-.086.086h-.087l-7.952.346-3.111,5.791,3.544,5.532.086.086v.087l-.691,3.112v.173h-.173l-3.457.518-1.988,3.8L418.55,336.2v.259h-.259l-3.371-.346-2.42,1.124v1.988l5.791,5.186,8.643,6.05,3.457-.259h.173v.173l.173.6,2.247.087,3.976-2.852.173-.087.086.173,2.507,3.457,7.606,6.05h3.8l.087.087,2.852,3.717v.173l.346,2.852,3.976.778h.173v.086l.519,2.074,3.457-1.124.691-2.42h-3.8l-.087-.087-.778-1.729-.087-.173.173-.086,1.729-1.037h0l2.334-.346,4.754-3.284L469.2,354.7h0l3.544-3.2.778-2.334h0l2.074-3.544h0l2.507-3.889,2.161-5.964h0l1.642-4.754-1.729-3.976v-.173l.432-4.321v-.173l2.247-2.679-2.679-2.247-.086-.086v-.087l-.432-2.507v-.259h.259l4.581-.605.518-2.679.086-.259.259.086,2.42.864,4.235-1.383,1.124-2.766.086-.173.173.086,2.161,1.124h2.247l.086.086,1.556,2.074,9.075-2.42,1.037-3.889.086-.173h.173l1.815.259,2.247-2.593.346-.346.086.519.259,2.766,5.532.864,3.284-2.247.173-4.235-3.457-2.42-.087-.086v-.086l-.259-5.359v-.086l.087-.086,1.9-1.469h.173l4.754-.173-4.408-10.026-2.42-1.642-4.149,1.9-.173.086-.086-.259-1.556-4.581-6.655-2.679-3.371.518-5.186,11.15h0l-3.457,4.062-.173.173-.173-.173-2.506-2.506-1.642,2.852-.086.086h-.087l-4.754.173-3.284,2.507-.173.086-.086-.173-3.112-3.284-.086-.086V287.8l.605-8.557h0l2.852-6.569-3.63-1.124h-.087v-.086l-1.729-3.89V267.4l1.3-5.445-2.939-1.642-.086-.086v-.087l.173-5.359-2.161-4.235-1.729,1.21-.086.086h-.087l-2.506-.173h-.173V248.3l.087-.087,1.988-1.21-1.21-2.507Zm-20.4,103.978L448.8,346.4v-.173l.173-.087,1.988-.6-.864-3.025-.086-.173.173-.086,2.42-.864.173-.087.087.173,1.9,3.717,4.668-2.766.173-.086.087.173,1.642,2.247h0l1.383,1.3,1.815-.691h2.593l.086.087,1.21,1.988.087.086-.087.086-4.84,6.137-.086.173-.173-.086-2.939-2.074-3.63.346h-.173l-2.161-1.3h0L451.913,349l-2.593-.259h-.173l.087-.259Z" transform="translate(185.953 2472.126)" fill="#fff" stroke="#f5f5f5" stroke-width="2" fill-rule="evenodd"/>
    <path id="Path_253" data-name="Path 253" d="M455,361.754l.346,1.728,2.42.173h.086l.086.086h.086l2.507,1.9,2.074,1.3,3.544-.346h.173l.087.087,2.766,1.9,4.667-5.878-1.123-1.728h-2.334l-1.729.605-.173.086-.086.087-.087-.087-.086-.086-1.383-1.3h-.086V360.2h0l-1.469-2.074-4.494,2.679-.259.087-.173.086-.086-.173-.087-.173L458.371,357l-2.074.778.864,2.852v.259l.086.173-.173.086H456.9Z" transform="translate(180.187 2456.862)" fill="#fff" stroke="#f5f5f5" stroke-width="2"/>
    <path id="Path_254" data-name="Path 254" d="M493.8,382.741l1.9.086,1.9,3.63,14.78,1.383,9.939-5.964,3.2-.086,1.037-3.284,4.84-4.495,6.742-.346,1.988,1.9,2.852-2.593,11.927,1.9,1.729-4.667,4.062-2.852-1.729-4.149,1.815-11.323,3.025-3.025-2.074-5.445-4.322-.432,3.025-5.618,5.359-3.716-4.84-7.26-.086-.086.086-.086,1.642-2.334-2.939-1.642-.086-.086v-.087l-.432-5.7-2.852.691h-.173l.086-.173-1.815-3.2-3.8,2.161-.173.086-.086-.086-2.334-2.334-.087-.086.087-.173,1.383-1.9-4.667-3.112h-.086v-.086L538.658,297h-4.926l-1.815,1.383.259,5.1,3.458,2.42.086.086v.086l-.173,4.408v.086l-.086.086-3.371,2.334-.087.086h-.086l-5.618-.864-1.556,2.247,1.642,1.469h0v.086l2.766,8.3,3.284.605h.173l3.112,2.766.086.086v.086l.259,4.149v.173l-.173.086-4.927,1.729-1.9,4.321v.086h0l-5.532,4.235v2.852l2.593,1.729.086.086v.086l-.259,3.371v.173l-2.506,3.112h-.086l-3.2,1.3-1.124,1.9-.086.087h-.086l-3.716.259-5.877,7.779-.086.087H509.1l-3.2-.432-3.457,2.939-.086.086h-5.532l1.124,3.284.086.173-.086.086-2.938,2.334,3.112,3.371.173.173-.259.086-3.025,1.556-1.21,3.63Zm25.5-13.224,1.037-2.679.087-.087.086-.086h.173l5.877-.691,1.642-3.457.086-.259.087-.259.173.173.173.173,1.3,1.21,1.383-3.284v-.086l.086-.086h.173l2.939-.605h.173l.087.087.086.086h0l3.544,2.247.086.087.087.086v.346h0l-.432,2.334v.346h-.346l-1.729.432,2.939,2.68h0l.26.173.259.173-.259.173-.26.173-12.273,5.877h0l-.086.087-.086.086-.086-.086-.086-.087-7.087-4.408-.173-.086-.173-.086.086-.173.173-.519Z" transform="translate(174.922 2465.003)" fill="#fff" stroke="#f5f5f5" stroke-width="2" fill-rule="evenodd"/>
    <path id="Path_255" data-name="Path 255" d="M524.837,376.86,523.8,379.54l7.088,4.408,12.273-5.877h0l-3.284-3.025-.259-.259.346-.086,2.161-.519.432-2.334-3.544-2.247-2.939.605-1.556,3.63-.086.259-.173-.259-1.556-1.383L530.974,376l-.086.173H530.8Z" transform="translate(170.852 2455.153)" fill="#fff" stroke="#f5f5f5" stroke-width="2"/>
    <path id="Path_256" data-name="Path 256" d="M458.312,224.111l-.173.086-.087-.086-2.334-1.815h-5.7l.087-.259.346-3.025v-.173l3.284-3.89.951-2.593-2.161-1.469h-.087v-2.939l-1.815-2.074h-.086l.086-.173.778-3.976-2.074-1.642-.259-.086.173-.173,3.2-3.544-1.123-15.039-3.8-5.7,1.9-.951,4.495-3.717.086-.086.087.086,2.679.259.951-4.667h0v-.086l1.3-1.988.346-2.593v-.086l.087-.086,5.532-4.322-2.334-2.852-.086-.086v-4.581l-4.84-6.828h0l-.691-3.544-1.469-1.9-.086-.086.086-.086.086-1.988-2.939,1.469-3.371,2.593-4.668,1.383L442.84,143.9l.173-4.494,9.335-9.68,5.186-9.335,2.42-8.384-7.26-8.211-6.741-.259-2.42,3.371-2.679.519,1.988-5.791-5.532-.692,1.815-2.593L435.753,95.5l-3.025,1.21-4.84,7.174,1.123,4.322-5.186.346.086,1.3,1.9,2.852-3.717-.778-1.9,1.815-4.322-.778-.519-1.988-6.137.173.173,3.457-7.347,1.037-5.013,3.976-3.8.086-2.852,2.507-1.21,5.013,2.334,4.322-3.544.864-9.594-1.556-5.532-.086-1.729,3.025-.173,7.865,3.457,3.457L376.115,149h-4.84l-4.235-7.779-3.025.173v.432l2.679,5.618.086.259-.259.086-2.852.432-.6,3.544,2.593,5.618.086.086h0l-.691,2.679v.173h-.173l-6.223,2.852-.778,3.112,4.062,5.445,4.581,1.124h.173v.173l1.037,5.791-.259.691h0l-1.642,4.149-.086.173h-.086l-4.235,1.124,1.3,3.025v.173l-1.383,3.976,3.371,4.408.086.086v.086l-.864,7.952,2.679,3.717.086.086v.086l-1.037,5.7,4.062,3.025v.086l.086.086.605,4.062.087.086-.087.086-3.544,4.927-.346,4.408v.086h-.087l-5.445,7v5.532l4.494,2.507.087.173v.086l-.864,2.074v.086l-.087.086-4.062,1.729h0l-3.457.432,1.469,5.272v.173l-1.469,1.815v2.766l10.8,1.728h.086v.086l3.2,6.482,2.939.432h.173v.173l-.173,2.507v.086h-.086l-4.322,3.717.432,3.025,2.334,2.42,3.544,1.124h.173v.259l-.605,2.074v.086h-.086l-3.889,2.939-.173,3.889v.173h0l-.519,2.42,3.371,6.569v.173l-.087.086-1.729,1.729h0l-1.469.691,1.729,5.013h3.2l3.2-.432h.087l.086.086,2.074,1.3.173.086-.086.173-1.124,2.334,2.42,3.717h0v.086l.605,3.2,1.124,3.371h0v.086l.173,2.42v.173h-.087l-2.766,1.469v2.247l-.951,2.074v.087h-.086l-2.939,1.124-1.642,3.371,4.754,3.371,7.865.951,3.371-2.766v-.087h.086l1.815-.432.087-1.815v-.086h.086l2.766-1.815-.173-1.9-.086-.259h.173l2.074-.518.691-2.766V327.4h.173l10.372-.951.519-2.334-5.791-5.186-.087-.086v-2.42l.087-.086,2.593-1.21h.086l3.284.346.6-10.113h.086v-.086l2.074-3.976v-.086h.086l3.457-.519.692-2.852-3.544-5.532-.086-.173.086-.086,3.2-5.964.087-.173h.086l8.038-.346,2.161-2.852.173-.259.173.346,3.025,6.482,1.729-.691-.346-3.8V284.7l.087-.086,7.606-8.384.519-3.284v-.086l4.149-1.9.086.173,1.815,4.062,3.457,2.074.864-2.852v-.087h0l1.988-1.988-.778-2.334-1.815-.519h-.173l.086-.173.086-2.247.086-.086v-.087l2.68-2.766-.432-2.247-3.717-1.124h-.087v-.173l-1.037-3.371-.086-.173.086-.087,1.815-2.42-1.642-2.766-.086-.173.173-.173,4.408-2.679,2.507-4.927-.346-3.8-1.642-2.679-.086-.086.086-.173,1.642-3.63-.864-2.161V231.2h0l-.173-3.457v-.086l.173-.086,3.025-1.383h.087l3.2-.691,1.383-1.556-1.124-1.383Z" transform="translate(193.47 2492.343)" fill="#fff" stroke="#f5f5f5" stroke-width="2"/>
    <path id="Path_257" data-name="Path 257" d="M768.106,217.831l-.951-11.323-1.21-5.186-3.716-3.717.346-5.532,1.9-1.556L757.994,183l.173-5.186,2.68-2.939-.692-2.852L754.8,170.38l-5.531-9.767,1.3-.951,1.729,2.42,2.68-1.729-4.149-3.976-2.247,1.3-3.63-2.334-.086.086-1.815-4.408h-3.716l-.432,2.593-2.42-.259-7.692-15.3.519-4.84,3.025-.692-2.247-9.075,4.84,3.889.086-10.89,3.889-3.889,5.7-.173-3.284-7.952-1.556-17.286-3.717,1.124h-.173L733.1,86.8l-4.754,13.743-.086.173h-.173l-6.05-.173-5.618,1.729-.173.086-.087-.259-1.815-5.013-7.606.432-1.383,2.42v.086l-.173.086L700,101.321,699.047,104v.173h-.173l-2.852.259-.864,3.2v.086l-.173.086L691.7,108.84l.605,3.2,4.754,6.828,2.939.6.086.086v.086l2.074,5.272,3.285-.346h.086l.086.086,2.247,2.074h0v.086l.691,3.2,3.025,1.729,2.074-1.988-5.7-6.828,1.383-4.494,5.445-1.988-2.853,4.408.605,3.371,4.408,3.112,2.074.087-.173,3.111,1.988.519-1.815,8.989L721,143.413l.692,10.545,1.556,6.742,2.161,6.742-2.507,2.766.864,2.593-1.383,1.815,3.457,4.062.605,6.4,4.754,5.445h0l5.7,6.4Z" transform="translate(148.071 2493.523)" fill="#fff" stroke="#f5f5f5" stroke-width="2"/>
    <path id="Path_258" data-name="Path 258" d="M231.057,217.541h-.086l-6.4-5.272-2.334,1.21-.086.086h0l-6.4-.778h.086l-4.235-2.247h-.086l-3.889-4.408-5.013-.432-1.469,3.63,3.544,4.754h0v.086l.259,3.371v.173h-.173l-5.877,2.507v1.988l1.642,1.383.173.086-1.9,2.507h0l-1.556,1.729-2.161,5.618h-.086l-1.815,1.988-1.124,3.025v.086h-.086l-1.9,2.161-.086.086h-.087l-1.729-.086-.086,4.149,1.9-.086h.259v3.284l4.149.259h.173v.173l.173,2.334,1.815.432h.086v.173l.259,1.124v.086l.259,1.642.6.778,1.642-.346,3.457-4.149.086-.086h.086l3.889-.432,2.507-3.976.173-.173.173.173,1.815,1.988,1.556-1.037.691-2.766v-.173h.173l4.322-.173,1.21-1.469.346-3.025v-.173l1.988-2.247-1.469-2.766h0v-.086l.086-2.247v-.086l.173-.086,4.667-2.074,5.359-5.272,3.63-4.84.6-1.556Z" transform="translate(216.4 2477.391)" fill="#fff" stroke="#f5f5f5" stroke-width="2"/>
    <path id="Path_259" data-name="Path 259" d="M15.9,248.552l2.42-2.766-5.532-7.174,3.284-9.248-2.334-1.9-1.988,1.383L3.717,223.4l-.951,1.642.259,6.482L0,234.723l.778,4.494,5.272-.346,5.877,7.347Z" transform="translate(241.921 2474.989)" fill="#fff" stroke="#f5f5f5" stroke-width="2"/>
  </g>
</svg>
